<svg version="1.1" viewBox="0.0 0.0 600.0 371.0" fill="none" stroke="none" stroke-linecap="square" stroke-miterlimit="10" width="600" height="371" xmlns:xlink="http://www.w3.org/1999/xlink" xmlns="http://www.w3.org/2000/svg"><path fill="#ffffff" d="M0 0L600.0 0L600.0 371.0L0 371.0L0 0Z" fill-rule="nonzero"/><path stroke="#333333" stroke-width="1.0" stroke-linecap="butt" d="M84.5 300.5L581.5 300.5" fill-rule="nonzero"/><path stroke="#cccccc" stroke-width="1.0" stroke-linecap="butt" d="M84.5 258.5L581.5 258.5" fill-rule="nonzero"/><path stroke="#cccccc" stroke-width="1.0" stroke-linecap="butt" d="M84.5 215.5L581.5 215.5" fill-rule="nonzero"/><path stroke="#cccccc" stroke-width="1.0" stroke-linecap="butt" d="M84.5 173.5L581.5 173.5" fill-rule="nonzero"/><path stroke="#cccccc" stroke-width="1.0" stroke-linecap="butt" d="M84.5 130.5L581.5 130.5" fill-rule="nonzero"/><path stroke="#cccccc" stroke-width="1.0" stroke-linecap="butt" d="M84.5 88.5L581.5 88.5" fill-rule="nonzero"/><path stroke="#000000" stroke-width="1.0" stroke-linecap="butt" stroke-opacity="0.0" d="M84.5 286.5L581.5 286.5" fill-rule="nonzero"/><path stroke="#000000" stroke-width="1.0" stroke-linecap="butt" stroke-opacity="0.0" d="M84.5 272.5L581.5 272.5" fill-rule="nonzero"/><path stroke="#000000" stroke-width="1.0" stroke-linecap="butt" stroke-opacity="0.0" d="M84.5 243.5L581.5 243.5" fill-rule="nonzero"/><path stroke="#000000" stroke-width="1.0" stroke-linecap="butt" stroke-opacity="0.0" d="M84.5 229.5L581.5 229.5" fill-rule="nonzero"/><path stroke="#000000" stroke-width="1.0" stroke-linecap="butt" stroke-opacity="0.0" d="M84.5 201.5L581.5 201.5" fill-rule="nonzero"/><path stroke="#000000" stroke-width="1.0" stroke-linecap="butt" stroke-opacity="0.0" d="M84.5 187.5L581.5 187.5" fill-rule="nonzero"/><path stroke="#000000" stroke-width="1.0" stroke-linecap="butt" stroke-opacity="0.0" d="M84.5 159.5L581.5 159.5" fill-rule="nonzero"/><path stroke="#000000" stroke-width="1.0" stroke-linecap="butt" stroke-opacity="0.0" d="M84.5 144.5L581.5 144.5" fill-rule="nonzero"/><path stroke="#000000" stroke-width="1.0" stroke-linecap="butt" stroke-opacity="0.0" d="M84.5 116.5L581.5 116.5" fill-rule="nonzero"/><path stroke="#000000" stroke-width="1.0" stroke-linecap="butt" stroke-opacity="0.0" d="M84.5 102.5L581.5 102.5" fill-rule="nonzero"/><clipPath id="id_0"><path d="M84.55 88.28333L581.45 88.28333L581.45 300.45L84.55 300.45L84.55 88.28333Z" clip-rule="nonzero"/></clipPath><path stroke="#4285f4" stroke-width="2.0" stroke-linecap="butt" clip-path="url(#id_0)" d="M96.38095 244.1834L120.042854 222.20293L143.70476 221.7786L167.36667 213.1222L191.02856 216.432L214.69048 205.56906L238.35239 215.49847L262.01428 214.56493L285.67618 219.2326L309.3381 219.9964L333.0 214.81953L356.6619 212.3584L380.32382 209.72754L403.98572 218.89313L427.6476 219.91153L451.3095 216.9412L474.97144 212.18866L498.63333 215.24387L522.2952 216.77147L545.95715 214.73466L569.619 219.2326" fill-rule="nonzero"/><path stroke="#ea4335" stroke-width="2.0" stroke-linecap="butt" clip-path="url(#id_0)" d="M96.38095 123.41814L120.042854 116.1196L143.70476 123.41814L167.36667 123.41814L191.02856 118.835335L214.69048 118.835335L238.35239 123.41814L262.01428 112.72493L285.67618 123.41814L309.3381 116.1196L333.0 116.1196L356.6619 116.1196L380.32382 116.1196L403.98572 123.41814L427.6476 123.41814L451.3095 123.41814L474.97144 123.41814L498.63333 123.41814L522.2952 123.41814L545.95715 112.72493L569.619 112.72493" fill-rule="nonzero"/><path fill="#4285f4" clip-path="url(#id_0)" d="M98.38095 244.1834C98.38095 245.28796 97.48552 246.1834 96.38095 246.1834C95.27638 246.1834 94.38095 245.28796 94.38095 244.1834C94.38095 243.07883 95.27638 242.1834 96.38095 242.1834C97.48552 242.1834 98.38095 243.07883 98.38095 244.1834Z" fill-rule="nonzero"/><path fill="#4285f4" clip-path="url(#id_0)" d="M122.042854 222.20293C122.042854 223.30751 121.14743 224.20293 120.042854 224.20293C118.938286 224.20293 118.042854 223.30751 118.042854 222.20293C118.042854 221.09836 118.938286 220.20293 120.042854 220.20293C121.14743 220.20293 122.042854 221.09836 122.042854 222.20293Z" fill-rule="nonzero"/><path fill="#4285f4" clip-path="url(#id_0)" d="M145.70476 221.7786C145.70476 222.88316 144.80933 223.7786 143.70476 223.7786C142.60019 223.7786 141.70476 222.88316 141.70476 221.7786C141.70476 220.67403 142.60019 219.7786 143.70476 219.7786C144.80933 219.7786 145.70476 220.67403 145.70476 221.7786Z" fill-rule="nonzero"/><path fill="#4285f4" clip-path="url(#id_0)" d="M169.36667 213.1222C169.36667 214.22678 168.47124 215.1222 167.36667 215.1222C166.2621 215.1222 165.36667 214.22678 165.36667 213.1222C165.36667 212.01762 166.2621 211.1222 167.36667 211.1222C168.47124 211.1222 169.36667 212.01762 169.36667 213.1222Z" fill-rule="nonzero"/><path fill="#4285f4" clip-path="url(#id_0)" d="M193.02856 216.432C193.02856 217.53658 192.13315 218.432 191.02856 218.432C189.924 218.432 189.02856 217.53658 189.02856 216.432C189.02856 215.32742 189.924 214.432 191.02856 214.432C192.13315 214.432 193.02856 215.32742 193.02856 216.432Z" fill-rule="nonzero"/><path fill="#4285f4" clip-path="url(#id_0)" d="M216.69048 205.56906C216.69048 206.67363 215.79504 207.56906 214.69048 207.56906C213.5859 207.56906 212.69048 206.67363 212.69048 205.56906C212.69048 204.4645 213.5859 203.56906 214.69048 203.56906C215.79504 203.56906 216.69048 204.4645 216.69048 205.56906Z" fill-rule="nonzero"/><path fill="#4285f4" clip-path="url(#id_0)" d="M240.35239 215.49847C240.35239 216.60304 239.45695 217.49847 238.35239 217.49847C237.24782 217.49847 236.35239 216.60304 236.35239 215.49847C236.35239 214.39389 237.24782 213.49847 238.35239 213.49847C239.45695 213.49847 240.35239 214.39389 240.35239 215.49847Z" fill-rule="nonzero"/><path fill="#4285f4" clip-path="url(#id_0)" d="M264.01428 214.56493C264.01428 215.66951 263.11887 216.56493 262.01428 216.56493C260.90973 216.56493 260.01428 215.66951 260.01428 214.56493C260.01428 213.46036 260.90973 212.56493 262.01428 212.56493C263.11887 212.56493 264.01428 213.46036 264.01428 214.56493Z" fill-rule="nonzero"/><path fill="#4285f4" clip-path="url(#id_0)" d="M287.67618 219.2326C287.67618 220.33717 286.78076 221.2326 285.67618 221.2326C284.57162 221.2326 283.67618 220.33717 283.67618 219.2326C283.67618 218.12804 284.57162 217.2326 285.67618 217.2326C286.78076 217.2326 287.67618 218.12804 287.67618 219.2326Z" fill-rule="nonzero"/><path fill="#4285f4" clip-path="url(#id_0)" d="M311.3381 219.9964C311.3381 221.10097 310.44266 221.9964 309.3381 221.9964C308.23352 221.9964 307.3381 221.10097 307.3381 219.9964C307.3381 218.89183 308.23352 217.9964 309.3381 217.9964C310.44266 217.9964 311.3381 218.89183 311.3381 219.9964Z" fill-rule="nonzero"/><path fill="#4285f4" clip-path="url(#id_0)" d="M335.0 214.81953C335.0 215.9241 334.10458 216.81953 333.0 216.81953C331.89542 216.81953 331.0 215.9241 331.0 214.81953C331.0 213.71497 331.89542 212.81953 333.0 212.81953C334.10458 212.81953 335.0 213.71497 335.0 214.81953Z" fill-rule="nonzero"/><path fill="#4285f4" clip-path="url(#id_0)" d="M358.6619 212.3584C358.6619 213.46297 357.76648 214.3584 356.6619 214.3584C355.55734 214.3584 354.6619 213.46297 354.6619 212.3584C354.6619 211.25383 355.55734 210.3584 356.6619 210.3584C357.76648 210.3584 358.6619 211.25383 358.6619 212.3584Z" fill-rule="nonzero"/><path fill="#4285f4" clip-path="url(#id_0)" d="M382.32382 209.72754C382.32382 210.8321 381.42838 211.72754 380.32382 211.72754C379.21924 211.72754 378.32382 210.8321 378.32382 209.72754C378.32382 208.62297 379.21924 207.72754 380.32382 207.72754C381.42838 207.72754 382.32382 208.62297 382.32382 209.72754Z" fill-rule="nonzero"/><path fill="#4285f4" clip-path="url(#id_0)" d="M405.98572 218.89313C405.98572 219.9977 405.09027 220.89313 403.98572 220.89313C402.88113 220.89313 401.98572 219.9977 401.98572 218.89313C401.98572 217.78856 402.88113 216.89313 403.98572 216.89313C405.09027 216.89313 405.98572 217.78856 405.98572 218.89313Z" fill-rule="nonzero"/><path fill="#4285f4" clip-path="url(#id_0)" d="M429.6476 219.91153C429.6476 221.0161 428.7522 221.91153 427.6476 221.91153C426.54306 221.91153 425.6476 221.0161 425.6476 219.91153C425.6476 218.80696 426.54306 217.91153 427.6476 217.91153C428.7522 217.91153 429.6476 218.80696 429.6476 219.91153Z" fill-rule="nonzero"/><path fill="#4285f4" clip-path="url(#id_0)" d="M453.3095 216.9412C453.3095 218.04578 452.4141 218.9412 451.3095 218.9412C450.20496 218.9412 449.3095 218.04578 449.3095 216.9412C449.3095 215.83662 450.20496 214.9412 451.3095 214.9412C452.4141 214.9412 453.3095 215.83662 453.3095 216.9412Z" fill-rule="nonzero"/><path fill="#4285f4" clip-path="url(#id_0)" d="M476.97144 212.18866C476.97144 213.29324 476.076 214.18866 474.97144 214.18866C473.86685 214.18866 472.97144 213.29324 472.97144 212.18866C472.97144 211.08409 473.86685 210.18866 474.97144 210.18866C476.076 210.18866 476.97144 211.08409 476.97144 212.18866Z" fill-rule="nonzero"/><path fill="#4285f4" clip-path="url(#id_0)" d="M500.63333 215.24387C500.63333 216.34843 499.7379 217.24387 498.63333 217.24387C497.52878 217.24387 496.63333 216.34843 496.63333 215.24387C496.63333 214.1393 497.52878 213.24387 498.63333 213.24387C499.7379 213.24387 500.63333 214.1393 500.63333 215.24387Z" fill-rule="nonzero"/><path fill="#4285f4" clip-path="url(#id_0)" d="M524.2952 216.77147C524.2952 217.87604 523.3998 218.77147 522.2952 218.77147C521.1907 218.77147 520.2952 217.87604 520.2952 216.77147C520.2952 215.6669 521.1907 214.77147 522.2952 214.77147C523.3998 214.77147 524.2952 215.6669 524.2952 216.77147Z" fill-rule="nonzero"/><path fill="#4285f4" clip-path="url(#id_0)" d="M547.95715 214.73466C547.95715 215.83923 547.0617 216.73466 545.95715 216.73466C544.8526 216.73466 543.95715 215.83923 543.95715 214.73466C543.95715 213.6301 544.8526 212.73466 545.95715 212.73466C547.0617 212.73466 547.95715 213.6301 547.95715 214.73466Z" fill-rule="nonzero"/><path fill="#4285f4" clip-path="url(#id_0)" d="M571.619 219.2326C571.619 220.33717 570.72363 221.2326 569.619 221.2326C568.51447 221.2326 567.619 220.33717 567.619 219.2326C567.619 218.12804 568.51447 217.2326 569.619 217.2326C570.72363 217.2326 571.619 218.12804 571.619 219.2326Z" fill-rule="nonzero"/><path fill="#ea4335" clip-path="url(#id_0)" d="M98.38095 123.41814C98.38095 124.522705 97.48552 125.41814 96.38095 125.41814C95.27638 125.41814 94.38095 124.522705 94.38095 123.41814C94.38095 122.31356 95.27638 121.41814 96.38095 121.41814C97.48552 121.41814 98.38095 122.31356 98.38095 123.41814Z" fill-rule="nonzero"/><path fill="#ea4335" clip-path="url(#id_0)" d="M122.042854 116.1196C122.042854 117.22417 121.14743 118.1196 120.042854 118.1196C118.938286 118.1196 118.042854 117.22417 118.042854 116.1196C118.042854 115.01503 118.938286 114.1196 120.042854 114.1196C121.14743 114.1196 122.042854 115.01503 122.042854 116.1196Z" fill-rule="nonzero"/><path fill="#ea4335" clip-path="url(#id_0)" d="M145.70476 123.41814C145.70476 124.522705 144.80933 125.41814 143.70476 125.41814C142.60019 125.41814 141.70476 124.522705 141.70476 123.41814C141.70476 122.31356 142.60019 121.41814 143.70476 121.41814C144.80933 121.41814 145.70476 122.31356 145.70476 123.41814Z" fill-rule="nonzero"/><path fill="#ea4335" clip-path="url(#id_0)" d="M169.36667 123.41814C169.36667 124.522705 168.47124 125.41814 167.36667 125.41814C166.2621 125.41814 165.36667 124.522705 165.36667 123.41814C165.36667 122.31356 166.2621 121.41814 167.36667 121.41814C168.47124 121.41814 169.36667 122.31356 169.36667 123.41814Z" fill-rule="nonzero"/><path fill="#ea4335" clip-path="url(#id_0)" d="M193.02856 118.835335C193.02856 119.9399 192.13315 120.835335 191.02856 120.835335C189.924 120.835335 189.02856 119.9399 189.02856 118.835335C189.02856 117.73077 189.924 116.835335 191.02856 116.835335C192.13315 116.835335 193.02856 117.73077 193.02856 118.835335Z" fill-rule="nonzero"/><path fill="#ea4335" clip-path="url(#id_0)" d="M216.69048 118.835335C216.69048 119.9399 215.79504 120.835335 214.69048 120.835335C213.5859 120.835335 212.69048 119.9399 212.69048 118.835335C212.69048 117.73077 213.5859 116.835335 214.69048 116.835335C215.79504 116.835335 216.69048 117.73077 216.69048 118.835335Z" fill-rule="nonzero"/><path fill="#ea4335" clip-path="url(#id_0)" d="M240.35239 123.41814C240.35239 124.522705 239.45695 125.41814 238.35239 125.41814C237.24782 125.41814 236.35239 124.522705 236.35239 123.41814C236.35239 122.31356 237.24782 121.41814 238.35239 121.41814C239.45695 121.41814 240.35239 122.31356 240.35239 123.41814Z" fill-rule="nonzero"/><path fill="#ea4335" clip-path="url(#id_0)" d="M264.01428 112.72493C264.01428 113.829506 263.11887 114.72493 262.01428 114.72493C260.90973 114.72493 260.01428 113.829506 260.01428 112.72493C260.01428 111.62036 260.90973 110.72493 262.01428 110.72493C263.11887 110.72493 264.01428 111.62036 264.01428 112.72493Z" fill-rule="nonzero"/><path fill="#ea4335" clip-path="url(#id_0)" d="M287.67618 123.41814C287.67618 124.522705 286.78076 125.41814 285.67618 125.41814C284.57162 125.41814 283.67618 124.522705 283.67618 123.41814C283.67618 122.31356 284.57162 121.41814 285.67618 121.41814C286.78076 121.41814 287.67618 122.31356 287.67618 123.41814Z" fill-rule="nonzero"/><path fill="#ea4335" clip-path="url(#id_0)" d="M311.3381 116.1196C311.3381 117.22417 310.44266 118.1196 309.3381 118.1196C308.23352 118.1196 307.3381 117.22417 307.3381 116.1196C307.3381 115.01503 308.23352 114.1196 309.3381 114.1196C310.44266 114.1196 311.3381 115.01503 311.3381 116.1196Z" fill-rule="nonzero"/><path fill="#ea4335" clip-path="url(#id_0)" d="M335.0 116.1196C335.0 117.22417 334.10458 118.1196 333.0 118.1196C331.89542 118.1196 331.0 117.22417 331.0 116.1196C331.0 115.01503 331.89542 114.1196 333.0 114.1196C334.10458 114.1196 335.0 115.01503 335.0 116.1196Z" fill-rule="nonzero"/><path fill="#ea4335" clip-path="url(#id_0)" d="M358.6619 116.1196C358.6619 117.22417 357.76648 118.1196 356.6619 118.1196C355.55734 118.1196 354.6619 117.22417 354.6619 116.1196C354.6619 115.01503 355.55734 114.1196 356.6619 114.1196C357.76648 114.1196 358.6619 115.01503 358.6619 116.1196Z" fill-rule="nonzero"/><path fill="#ea4335" clip-path="url(#id_0)" d="M382.32382 116.1196C382.32382 117.22417 381.42838 118.1196 380.32382 118.1196C379.21924 118.1196 378.32382 117.22417 378.32382 116.1196C378.32382 115.01503 379.21924 114.1196 380.32382 114.1196C381.42838 114.1196 382.32382 115.01503 382.32382 116.1196Z" fill-rule="nonzero"/><path fill="#ea4335" clip-path="url(#id_0)" d="M405.98572 123.41814C405.98572 124.522705 405.09027 125.41814 403.98572 125.41814C402.88113 125.41814 401.98572 124.522705 401.98572 123.41814C401.98572 122.31356 402.88113 121.41814 403.98572 121.41814C405.09027 121.41814 405.98572 122.31356 405.98572 123.41814Z" fill-rule="nonzero"/><path fill="#ea4335" clip-path="url(#id_0)" d="M429.6476 123.41814C429.6476 124.522705 428.7522 125.41814 427.6476 125.41814C426.54306 125.41814 425.6476 124.522705 425.6476 123.41814C425.6476 122.31356 426.54306 121.41814 427.6476 121.41814C428.7522 121.41814 429.6476 122.31356 429.6476 123.41814Z" fill-rule="nonzero"/><path fill="#ea4335" clip-path="url(#id_0)" d="M453.3095 123.41814C453.3095 124.522705 452.4141 125.41814 451.3095 125.41814C450.20496 125.41814 449.3095 124.522705 449.3095 123.41814C449.3095 122.31356 450.20496 121.41814 451.3095 121.41814C452.4141 121.41814 453.3095 122.31356 453.3095 123.41814Z" fill-rule="nonzero"/><path fill="#ea4335" clip-path="url(#id_0)" d="M476.97144 123.41814C476.97144 124.522705 476.076 125.41814 474.97144 125.41814C473.86685 125.41814 472.97144 124.522705 472.97144 123.41814C472.97144 122.31356 473.86685 121.41814 474.97144 121.41814C476.076 121.41814 476.97144 122.31356 476.97144 123.41814Z" fill-rule="nonzero"/><path fill="#ea4335" clip-path="url(#id_0)" d="M500.63333 123.41814C500.63333 124.522705 499.7379 125.41814 498.63333 125.41814C497.52878 125.41814 496.63333 124.522705 496.63333 123.41814C496.63333 122.31356 497.52878 121.41814 498.63333 121.41814C499.7379 121.41814 500.63333 122.31356 500.63333 123.41814Z" fill-rule="nonzero"/><path fill="#ea4335" clip-path="url(#id_0)" d="M524.2952 123.41814C524.2952 124.522705 523.3998 125.41814 522.2952 125.41814C521.1907 125.41814 520.2952 124.522705 520.2952 123.41814C520.2952 122.31356 521.1907 121.41814 522.2952 121.41814C523.3998 121.41814 524.2952 122.31356 524.2952 123.41814Z" fill-rule="nonzero"/><path fill="#ea4335" clip-path="url(#id_0)" d="M547.95715 112.72493C547.95715 113.829506 547.0617 114.72493 545.95715 114.72493C544.8526 114.72493 543.95715 113.829506 543.95715 112.72493C543.95715 111.62036 544.8526 110.72493 545.95715 110.72493C547.0617 110.72493 547.95715 111.62036 547.95715 112.72493Z" fill-rule="nonzero"/><path fill="#ea4335" clip-path="url(#id_0)" d="M571.619 112.72493C571.619 113.829506 570.72363 114.72493 569.619 114.72493C568.51447 114.72493 567.619 113.829506 567.619 112.72493C567.619 111.62036 568.51447 110.72493 569.619 110.72493C570.72363 110.72493 571.619 111.62036 571.619 112.72493Z" fill-rule="nonzero"/><path fill="#000000" d="M307.45312 346.075L307.45312 345.075L311.07812 345.0594L311.07812 348.2469Q310.25 348.91876 309.35938 349.2625Q308.46875 349.59064 307.53125 349.59064Q306.26562 349.59064 305.21875 349.0594Q304.1875 348.5125 303.65625 347.4969Q303.14062 346.46564 303.14062 345.2Q303.14062 343.9344 303.65625 342.85626Q304.1875 341.7625 305.17188 341.2469Q306.15625 340.71564 307.4375 340.71564Q308.375 340.71564 309.125 341.0125Q309.875 341.3094 310.29688 341.85626Q310.73438 342.3875 310.95312 343.2625L309.9375 343.54376Q309.73438 342.8875 309.4375 342.5125Q309.15625 342.1375 308.625 341.91876Q308.09375 341.6844 307.45312 341.6844Q306.67188 341.6844 306.09375 341.91876Q305.53125 342.15314 305.17188 342.54376Q304.82812 342.9344 304.64062 343.40314Q304.3125 344.2 304.3125 345.1219Q304.3125 346.27814 304.70312 347.0594Q305.10938 347.825 305.85938 348.2Q306.60938 348.575 307.46875 348.575Q308.20312 348.575 308.90625 348.29376Q309.60938 347.9969 309.96875 347.6844L309.96875 346.075L307.45312 346.075ZM316.54688 347.45L317.64062 347.575Q317.39062 348.52814 316.6875 349.0594Q315.98438 349.59064 314.90625 349.59064Q313.54688 349.59064 312.73438 348.7469Q311.9375 347.90314 311.9375 346.3875Q311.9375 344.825 312.75 343.96564Q313.5625 343.09064 314.84375 343.09064Q316.09375 343.09064 316.875 343.9344Q317.67188 344.77814 317.67188 346.325Q317.67188 346.41876 317.67188 346.60626L313.03125 346.60626Q313.09375 347.6375 313.60938 348.1844Q314.125 348.71564 314.90625 348.71564Q315.48438 348.71564 315.89062 348.41876Q316.3125 348.10626 316.54688 347.45ZM313.09375 345.7469L316.5625 345.7469Q316.5 344.95 316.17188 344.5594Q315.65625 343.95 314.85938 343.95Q314.125 343.95 313.625 344.4344Q313.14062 344.91876 313.09375 345.7469ZM319.29688 349.45L319.29688 343.23126L320.23438 343.23126L320.23438 344.10626Q320.92188 343.09064 322.21875 343.09064Q322.78125 343.09064 323.25 343.29376Q323.73438 343.4969 323.96875 343.825Q324.20312 344.15314 324.29688 344.59064Q324.34375 344.8875 324.34375 345.6219L324.34375 349.45L323.29688 349.45L323.29688 345.66876Q323.29688 345.0125 323.17188 344.7Q323.04688 344.3875 322.73438 344.2Q322.42188 343.9969 322.0 343.9969Q321.32812 343.9969 320.82812 344.4344Q320.34375 344.85626 320.34375 346.04376L320.34375 349.45L319.29688 349.45ZM330.54688 347.45L331.64062 347.575Q331.39062 348.52814 330.6875 349.0594Q329.98438 349.59064 328.90625 349.59064Q327.54688 349.59064 326.73438 348.7469Q325.9375 347.90314 325.9375 346.3875Q325.9375 344.825 326.75 343.96564Q327.5625 343.09064 328.84375 343.09064Q330.09375 343.09064 330.875 343.9344Q331.67188 344.77814 331.67188 346.325Q331.67188 346.41876 331.67188 346.60626L327.03125 346.60626Q327.09375 347.6375 327.60938 348.1844Q328.125 348.71564 328.90625 348.71564Q329.48438 348.71564 329.89062 348.41876Q330.3125 348.10626 330.54688 347.45ZM327.09375 345.7469L330.5625 345.7469Q330.5 344.95 330.17188 344.5594Q329.65625 343.95 328.85938 343.95Q328.125 343.95 327.625 344.4344Q327.14062 344.91876 327.09375 345.7469ZM333.28125 349.45L333.28125 343.23126L334.23438 343.23126L334.23438 344.16876Q334.59375 343.5125 334.89062 343.3094Q335.20312 343.09064 335.57812 343.09064Q336.10938 343.09064 336.65625 343.41876L336.29688 344.40314Q335.90625 344.16876 335.53125 344.16876Q335.17188 344.16876 334.89062 344.3875Q334.625 344.59064 334.51562 344.96564Q334.32812 345.52814 334.32812 346.1844L334.32812 349.45L333.28125 349.45ZM341.35938 348.6844Q340.76562 349.1844 340.21875 349.3875Q339.6875 349.59064 339.0625 349.59064Q338.03125 349.59064 337.48438 349.09064Q336.9375 348.59064 336.9375 347.8094Q336.9375 347.35626 337.14062 346.98126Q337.34375 346.59064 337.6875 346.3719Q338.03125 346.1375 338.45312 346.02814Q338.75 345.9344 339.39062 345.85626Q340.65625 345.71564 341.26562 345.4969Q341.26562 345.27814 341.26562 345.23126Q341.26562 344.575 340.96875 344.3094Q340.5625 343.96564 339.76562 343.96564Q339.03125 343.96564 338.67188 344.23126Q338.3125 344.48126 338.14062 345.1375L337.10938 344.9969Q337.25 344.34064 337.57812 343.9344Q337.90625 343.52814 338.51562 343.3094Q339.125 343.09064 339.92188 343.09064Q340.71875 343.09064 341.21875 343.27814Q341.71875 343.46564 341.95312 343.7469Q342.1875 344.02814 342.28125 344.46564Q342.32812 344.73126 342.32812 345.4344L342.32812 346.84064Q342.32812 348.3094 342.39062 348.7Q342.46875 349.09064 342.67188 349.45L341.5625 349.45Q341.40625 349.1219 341.35938 348.6844ZM341.26562 346.325Q340.6875 346.5594 339.54688 346.73126Q338.89062 346.825 338.625 346.95Q338.35938 347.0594 338.20312 347.27814Q338.0625 347.4969 338.0625 347.77814Q338.0625 348.2 338.375 348.48126Q338.70312 348.7625 339.3125 348.7625Q339.92188 348.7625 340.39062 348.4969Q340.875 348.23126 341.09375 347.7625Q341.26562 347.40314 341.26562 346.71564L341.26562 346.325ZM346.59375 348.5125L346.75 349.4344Q346.29688 349.52814 345.95312 349.52814Q345.375 349.52814 345.0625 349.35626Q344.75 349.16876 344.60938 348.8719Q344.48438 348.575 344.48438 347.6219L344.48438 344.04376L343.71875 344.04376L343.71875 343.23126L344.48438 343.23126L344.48438 341.6844L345.53125 341.0594L345.53125 343.23126L346.59375 343.23126L346.59375 344.04376L345.53125 344.04376L345.53125 347.6844Q345.53125 348.1375 345.57812 348.2625Q345.64062 348.3875 345.76562 348.46564Q345.89062 348.54376 346.125 348.54376Q346.3125 348.54376 346.59375 348.5125ZM347.29688 342.075L347.29688 340.85626L348.35938 340.85626L348.35938 342.075L347.29688 342.075ZM347.29688 349.45L347.29688 343.23126L348.35938 343.23126L348.35938 349.45L347.29688 349.45ZM349.90625 346.34064Q349.90625 344.60626 350.85938 343.77814Q351.65625 343.09064 352.8125 343.09064Q354.09375 343.09064 354.90625 343.9344Q355.73438 344.7625 355.73438 346.2469Q355.73438 347.45 355.375 348.1375Q355.01562 348.825 354.3125 349.21564Q353.625 349.59064 352.8125 349.59064Q351.51562 349.59064 350.70312 348.7625Q349.90625 347.91876 349.90625 346.34064ZM350.98438 346.34064Q350.98438 347.52814 351.5 348.1219Q352.03125 348.71564 352.8125 348.71564Q353.60938 348.71564 354.125 348.1219Q354.64062 347.52814 354.64062 346.3094Q354.64062 345.15314 354.10938 344.5594Q353.59375 343.96564 352.8125 343.96564Q352.03125 343.96564 351.5 344.5594Q350.98438 345.1375 350.98438 346.34064ZM357.29688 349.45L357.29688 343.23126L358.23438 343.23126L358.23438 344.10626Q358.92188 343.09064 360.21875 343.09064Q360.78125 343.09064 361.25 343.29376Q361.73438 343.4969 361.96875 343.825Q362.20312 344.15314 362.29688 344.59064Q362.34375 344.8875 362.34375 345.6219L362.34375 349.45L361.29688 349.45L361.29688 345.66876Q361.29688 345.0125 361.17188 344.7Q361.04688 344.3875 360.73438 344.2Q360.42188 343.9969 360.0 343.9969Q359.32812 343.9969 358.82812 344.4344Q358.34375 344.85626 358.34375 346.04376L358.34375 349.45L357.29688 349.45Z" fill-rule="nonzero"/><path fill="#000000" d="M29.550013 220.3823L20.956263 220.3823L20.956263 214.58542L21.971888 214.58542L21.971888 219.24167L24.628138 219.24167L24.628138 215.21042L25.643763 215.21042L25.643763 219.24167L29.550013 219.24167L29.550013 220.3823ZM22.175013 213.5698L20.956263 213.5698L20.956263 212.5073L22.175013 212.5073L22.175013 213.5698ZM29.550013 213.5698L23.331263 213.5698L23.331263 212.5073L29.550013 212.5073L29.550013 213.5698ZM28.612513 208.27292L29.534388 208.11667Q29.628138 208.5698 29.628138 208.91354Q29.628138 209.49167 29.456263 209.80417Q29.268763 210.11667 28.971888 210.2573Q28.675013 210.3823 27.721888 210.3823L24.143763 210.3823L24.143763 211.14792L23.331263 211.14792L23.331263 210.3823L21.784388 210.3823L21.159388 209.33542L23.331263 209.33542L23.331263 208.27292L24.143763 208.27292L24.143763 209.33542L27.784388 209.33542Q28.237513 209.33542 28.362513 209.28854Q28.487513 209.22604 28.565638 209.10104Q28.643763 208.97604 28.643763 208.74167Q28.643763 208.55417 28.612513 208.27292ZM29.550013 207.5698L23.331263 207.5698L23.331263 206.6323L24.206263 206.6323Q23.190638 205.9448 23.190638 204.64792Q23.190638 204.08542 23.393763 203.61667Q23.596888 203.1323 23.925013 202.89792Q24.253138 202.66354 24.690638 202.5698Q24.987513 202.52292 25.721888 202.52292L29.550013 202.52292L29.550013 203.5698L25.768763 203.5698Q25.112513 203.5698 24.800013 203.6948Q24.487513 203.8198 24.300013 204.1323Q24.096888 204.4448 24.096888 204.86667Q24.096888 205.53854 24.534388 206.03854Q24.956263 206.52292 26.143763 206.52292L29.550013 206.52292L29.550013 207.5698ZM27.550013 196.3198L27.675013 195.22604Q28.628138 195.47604 29.159388 196.17917Q29.690638 196.8823 29.690638 197.96042Q29.690638 199.3198 28.846888 200.1323Q28.003138 200.92917 26.487513 200.92917Q24.925013 200.92917 24.065638 200.11667Q23.190638 199.30417 23.190638 198.02292Q23.190638 196.77292 24.034388 195.99167Q24.878138 195.1948 26.425013 195.1948Q26.518763 195.1948 26.706263 195.1948L26.706263 199.83542Q27.737513 199.77292 28.284388 199.2573Q28.815638 198.74167 28.815638 197.96042Q28.815638 197.3823 28.518763 196.97604Q28.206263 196.55417 27.550013 196.3198ZM25.846888 199.77292L25.846888 196.30417Q25.050013 196.36667 24.659388 196.6948Q24.050013 197.21042 24.050013 198.0073Q24.050013 198.74167 24.534388 199.24167Q25.018763 199.72604 25.846888 199.77292ZM27.690638 193.99167L27.534388 192.96042Q28.159388 192.86667 28.487513 192.47604Q28.815638 192.0698 28.815638 191.33542Q28.815638 190.61667 28.534388 190.27292Q28.237513 189.91354 27.831263 189.91354Q27.471888 189.91354 27.268763 190.22604Q27.128138 190.4448 26.909388 191.30417Q26.612513 192.46042 26.409388 192.91354Q26.190638 193.35104 25.815638 193.58542Q25.440638 193.8198 24.971888 193.8198Q24.565638 193.8198 24.206263 193.6323Q23.846888 193.4448 23.612513 193.11667Q23.440638 192.86667 23.315638 192.4448Q23.190638 192.02292 23.190638 191.52292Q23.190638 190.80417 23.409388 190.2573Q23.612513 189.6948 23.971888 189.42917Q24.331263 189.16354 24.925013 189.0698L25.065638 190.10104Q24.596888 190.16354 24.331263 190.5073Q24.050013 190.83542 24.050013 191.46042Q24.050013 192.17917 24.300013 192.49167Q24.534388 192.80417 24.862513 192.80417Q25.065638 192.80417 25.221888 192.67917Q25.393763 192.53854 25.503138 192.27292Q25.565638 192.11667 25.768763 191.33542Q26.081263 190.21042 26.268763 189.77292Q26.456263 189.33542 26.815638 189.08542Q27.175013 188.83542 27.721888 188.83542Q28.253138 188.83542 28.721888 189.14792Q29.175013 189.4448 29.440638 190.02292Q29.690638 190.60104 29.690638 191.33542Q29.690638 192.55417 29.190638 193.1948Q28.675013 193.8198 27.690638 193.99167ZM27.690638 186.99167L27.534388 185.96042Q28.159388 185.86667 28.487513 185.47604Q28.815638 185.0698 28.815638 184.33542Q28.815638 183.61667 28.534388 183.27292Q28.237513 182.91354 27.831263 182.91354Q27.471888 182.91354 27.268763 183.22604Q27.128138 183.4448 26.909388 184.30417Q26.612513 185.46042 26.409388 185.91354Q26.190638 186.35104 25.815638 186.58542Q25.440638 186.8198 24.971888 186.8198Q24.565638 186.8198 24.206263 186.6323Q23.846888 186.4448 23.612513 186.11667Q23.440638 185.86667 23.315638 185.4448Q23.190638 185.02292 23.190638 184.52292Q23.190638 183.80417 23.409388 183.2573Q23.612513 182.6948 23.971888 182.42917Q24.331263 182.16354 24.925013 182.0698L25.065638 183.10104Q24.596888 183.16354 24.331263 183.5073Q24.050013 183.83542 24.050013 184.46042Q24.050013 185.17917 24.300013 185.49167Q24.534388 185.80417 24.862513 185.80417Q25.065638 185.80417 25.221888 185.67917Q25.393763 185.53854 25.503138 185.27292Q25.565638 185.11667 25.768763 184.33542Q26.081263 183.21042 26.268763 182.77292Q26.456263 182.33542 26.815638 182.08542Q27.175013 181.83542 27.721888 181.83542Q28.253138 181.83542 28.721888 182.14792Q29.175013 182.4448 29.440638 183.02292Q29.690638 183.60104 29.690638 184.33542Q29.690638 185.55417 29.190638 186.1948Q28.675013 186.8198 27.690638 186.99167Z" fill-rule="nonzero"/><path fill="#000000" d="M72.05 300.21564Q72.05 298.6844 72.3625 297.7625Q72.675 296.825 73.28438 296.325Q73.90938 295.825 74.84688 295.825Q75.53438 295.825 76.05 296.10626Q76.58125 296.3875 76.925 296.91876Q77.26875 297.4344 77.45625 298.1844Q77.64375 298.9344 77.64375 300.21564Q77.64375 301.73126 77.33125 302.65314Q77.03438 303.575 76.40938 304.09064Q75.8 304.59064 74.84688 304.59064Q73.6125 304.59064 72.89375 303.7Q72.05 302.6375 72.05 300.21564ZM73.12813 300.21564Q73.12813 302.325 73.62813 303.02814Q74.12813 303.73126 74.84688 303.73126Q75.58125 303.73126 76.06563 303.02814Q76.56563 302.325 76.56563 300.21564Q76.56563 298.09064 76.06563 297.40314Q75.58125 296.7 74.83125 296.7Q74.1125 296.7 73.675 297.3094Q73.12813 298.09064 73.12813 300.21564Z" fill-rule="nonzero"/><path fill="#000000" d="M58.05 259.76666L59.159374 259.6729Q59.284374 260.4854 59.721874 260.89166Q60.175 261.2979 60.815624 261.2979Q61.565624 261.2979 62.096874 260.7198Q62.628124 260.14166 62.628124 259.20416Q62.628124 258.2979 62.1125 257.7823Q61.6125 257.25104 60.784374 257.25104Q60.284374 257.25104 59.8625 257.4854Q59.45625 257.7198 59.221874 258.07916L58.2375 257.95416L59.065624 253.54791L63.346874 253.54791L63.346874 254.54791L59.909374 254.54791L59.45625 256.8604Q60.221874 256.31354 61.065624 256.31354Q62.190624 256.31354 62.95625 257.0948Q63.7375 257.87604 63.7375 259.1104Q63.7375 260.26666 63.065624 261.12604Q62.2375 262.1573 60.815624 262.1573Q59.64375 262.1573 58.89375 261.50104Q58.159374 260.8448 58.05 259.76666ZM65.05 257.7823Q65.05 256.25104 65.3625 255.32916Q65.675 254.39166 66.28438 253.89166Q66.90938 253.39166 67.84688 253.39166Q68.53438 253.39166 69.05 253.67291Q69.58125 253.95416 69.925 254.48541Q70.26875 255.00104 70.45625 255.75104Q70.64375 256.50104 70.64375 257.7823Q70.64375 259.2979 70.33125 260.2198Q70.03438 261.14166 69.40938 261.6573Q68.8 262.1573 67.84688 262.1573Q66.6125 262.1573 65.89375 261.26666Q65.05 260.20416 65.05 257.7823ZM66.12813 257.7823Q66.12813 259.89166 66.62813 260.5948Q67.12813 261.2979 67.84688 261.2979Q68.58125 261.2979 69.06563 260.5948Q69.56563 259.89166 69.56563 257.7823Q69.56563 255.65729 69.06563 254.96979Q68.58125 254.26666 67.83125 254.26666Q67.1125 254.26666 66.675 254.87604Q66.12813 255.65729 66.12813 257.7823ZM72.05 257.7823Q72.05 256.25104 72.3625 255.32916Q72.675 254.39166 73.28438 253.89166Q73.90938 253.39166 74.84688 253.39166Q75.53438 253.39166 76.05 253.67291Q76.58125 253.95416 76.925 254.48541Q77.26875 255.00104 77.45625 255.75104Q77.64375 256.50104 77.64375 257.7823Q77.64375 259.2979 77.33125 260.2198Q77.03438 261.14166 76.40938 261.6573Q75.8 262.1573 74.84688 262.1573Q73.6125 262.1573 72.89375 261.26666Q72.05 260.20416 72.05 257.7823ZM73.12813 257.7823Q73.12813 259.89166 73.62813 260.5948Q74.12813 261.2979 74.84688 261.2979Q75.58125 261.2979 76.06563 260.5948Q76.56563 259.89166 76.56563 257.7823Q76.56563 255.65729 76.06563 254.96979Q75.58125 254.26666 74.83125 254.26666Q74.1125 254.26666 73.675 254.87604Q73.12813 255.65729 73.12813 257.7823Z" fill-rule="nonzero"/><path fill="#000000" d="M55.01875 219.58333L53.971874 219.58333L53.971874 212.86458Q53.58125 213.22395 52.95625 213.59895Q52.346874 213.95833 51.8625 214.1302L51.8625 213.11458Q52.7375 212.6927 53.39375 212.11458Q54.065624 211.52083 54.346874 210.95833L55.01875 210.95833L55.01875 219.58333ZM58.05 215.34895Q58.05 213.8177 58.3625 212.89583Q58.675 211.95833 59.284374 211.45833Q59.909374 210.95833 60.846874 210.95833Q61.534374 210.95833 62.05 211.23958Q62.58125 211.52083 62.925 212.05208Q63.26875 212.5677 63.45625 213.3177Q63.64375 214.0677 63.64375 215.34895Q63.64375 216.86458 63.33125 217.78645Q63.034374 218.70833 62.409374 219.22395Q61.8 219.72395 60.846874 219.72395Q59.6125 219.72395 58.89375 218.83333Q58.05 217.77083 58.05 215.34895ZM59.128124 215.34895Q59.128124 217.45833 59.628124 218.16145Q60.128124 218.86458 60.846874 218.86458Q61.58125 218.86458 62.065624 218.16145Q62.565624 217.45833 62.565624 215.34895Q62.565624 213.22395 62.065624 212.53645Q61.58125 211.83333 60.83125 211.83333Q60.1125 211.83333 59.675 212.4427Q59.128124 213.22395 59.128124 215.34895ZM65.05 215.34895Q65.05 213.8177 65.3625 212.89583Q65.675 211.95833 66.28438 211.45833Q66.90938 210.95833 67.84688 210.95833Q68.53438 210.95833 69.05 211.23958Q69.58125 211.52083 69.925 212.05208Q70.26875 212.5677 70.45625 213.3177Q70.64375 214.0677 70.64375 215.34895Q70.64375 216.86458 70.33125 217.78645Q70.03438 218.70833 69.40938 219.22395Q68.8 219.72395 67.84688 219.72395Q66.6125 219.72395 65.89375 218.83333Q65.05 217.77083 65.05 215.34895ZM66.12813 215.34895Q66.12813 217.45833 66.62813 218.16145Q67.12813 218.86458 67.84688 218.86458Q68.58125 218.86458 69.06563 218.16145Q69.56563 217.45833 69.56563 215.34895Q69.56563 213.22395 69.06563 212.53645Q68.58125 211.83333 67.83125 211.83333Q67.1125 211.83333 66.675 212.4427Q66.12813 213.22395 66.12813 215.34895ZM72.05 215.34895Q72.05 213.8177 72.3625 212.89583Q72.675 211.95833 73.28438 211.45833Q73.90938 210.95833 74.84688 210.95833Q75.53438 210.95833 76.05 211.23958Q76.58125 211.52083 76.925 212.05208Q77.26875 212.5677 77.45625 213.3177Q77.64375 214.0677 77.64375 215.34895Q77.64375 216.86458 77.33125 217.78645Q77.03438 218.70833 76.40938 219.22395Q75.8 219.72395 74.84688 219.72395Q73.6125 219.72395 72.89375 218.83333Q72.05 217.77083 72.05 215.34895ZM73.12813 215.34895Q73.12813 217.45833 73.62813 218.16145Q74.12813 218.86458 74.84688 218.86458Q75.58125 218.86458 76.06563 218.16145Q76.56563 217.45833 76.56563 215.34895Q76.56563 213.22395 76.06563 212.53645Q75.58125 211.83333 74.83125 211.83333Q74.1125 211.83333 73.675 212.4427Q73.12813 213.22395 73.12813 215.34895Z" fill-rule="nonzero"/><path fill="#000000" d="M55.01875 177.15L53.971874 177.15L53.971874 170.43124Q53.58125 170.79062 52.95625 171.16562Q52.346874 171.525 51.8625 171.69687L51.8625 170.68124Q52.7375 170.25937 53.39375 169.68124Q54.065624 169.0875 54.346874 168.525L55.01875 168.525L55.01875 177.15ZM58.05 174.9L59.159374 174.80624Q59.284374 175.61874 59.721874 176.025Q60.175 176.43124 60.815624 176.43124Q61.565624 176.43124 62.096874 175.85312Q62.628124 175.275 62.628124 174.3375Q62.628124 173.43124 62.1125 172.91562Q61.6125 172.38437 60.784374 172.38437Q60.284374 172.38437 59.8625 172.61874Q59.45625 172.85312 59.221874 173.2125L58.2375 173.0875L59.065624 168.68124L63.346874 168.68124L63.346874 169.68124L59.909374 169.68124L59.45625 171.99374Q60.221874 171.44687 61.065624 171.44687Q62.190624 171.44687 62.95625 172.22812Q63.7375 173.00937 63.7375 174.24374Q63.7375 175.4 63.065624 176.25937Q62.2375 177.29062 60.815624 177.29062Q59.64375 177.29062 58.89375 176.63437Q58.159374 175.97812 58.05 174.9ZM65.05 172.91562Q65.05 171.38437 65.3625 170.4625Q65.675 169.525 66.28438 169.025Q66.90938 168.525 67.84688 168.525Q68.53438 168.525 69.05 168.80624Q69.58125 169.0875 69.925 169.61874Q70.26875 170.13437 70.45625 170.88437Q70.64375 171.63437 70.64375 172.91562Q70.64375 174.43124 70.33125 175.35312Q70.03438 176.275 69.40938 176.79062Q68.8 177.29062 67.84688 177.29062Q66.6125 177.29062 65.89375 176.4Q65.05 175.3375 65.05 172.91562ZM66.12813 172.91562Q66.12813 175.025 66.62813 175.72812Q67.12813 176.43124 67.84688 176.43124Q68.58125 176.43124 69.06563 175.72812Q69.56563 175.025 69.56563 172.91562Q69.56563 170.79062 69.06563 170.10312Q68.58125 169.4 67.83125 169.4Q67.1125 169.4 66.675 170.00937Q66.12813 170.79062 66.12813 172.91562ZM72.05 172.91562Q72.05 171.38437 72.3625 170.4625Q72.675 169.525 73.28438 169.025Q73.90938 168.525 74.84688 168.525Q75.53438 168.525 76.05 168.80624Q76.58125 169.0875 76.925 169.61874Q77.26875 170.13437 77.45625 170.88437Q77.64375 171.63437 77.64375 172.91562Q77.64375 174.43124 77.33125 175.35312Q77.03438 176.275 76.40938 176.79062Q75.8 177.29062 74.84688 177.29062Q73.6125 177.29062 72.89375 176.4Q72.05 175.3375 72.05 172.91562ZM73.12813 172.91562Q73.12813 175.025 73.62813 175.72812Q74.12813 176.43124 74.84688 176.43124Q75.58125 176.43124 76.06563 175.72812Q76.56563 175.025 76.56563 172.91562Q76.56563 170.79062 76.06563 170.10312Q75.58125 169.4 74.83125 169.4Q74.1125 169.4 73.675 170.00937Q73.12813 170.79062 73.12813 172.91562Z" fill-rule="nonzero"/><path fill="#000000" d="M56.596874 133.70103L56.596874 134.71666L50.909374 134.71666Q50.909374 134.34166 51.034374 133.98228Q51.253124 133.40416 51.721874 132.84166Q52.20625 132.27916 53.1125 131.54478Q54.51875 130.38853 55.003124 129.71666Q55.503124 129.04478 55.503124 128.45103Q55.503124 127.826035 55.05 127.40416Q54.596874 126.96666 53.878124 126.96666Q53.1125 126.96666 52.659374 127.419785Q52.20625 127.87291 52.190624 128.68541L51.1125 128.57603Q51.221874 127.357285 51.940624 126.732285Q52.675 126.09166 53.909374 126.09166Q55.14375 126.09166 55.8625 126.77916Q56.58125 127.46666 56.58125 128.48228Q56.58125 128.99791 56.3625 129.49791Q56.159374 129.98228 55.659374 130.54478Q55.175 131.09166 54.05 132.04478Q53.096874 132.84166 52.815624 133.13853Q52.55 133.41978 52.378124 133.70103L56.596874 133.70103ZM58.05 130.48228Q58.05 128.95103 58.3625 128.02916Q58.675 127.09166 59.284374 126.59166Q59.909374 126.09166 60.846874 126.09166Q61.534374 126.09166 62.05 126.37291Q62.58125 126.65416 62.925 127.18541Q63.26875 127.701035 63.45625 128.45103Q63.64375 129.20103 63.64375 130.48228Q63.64375 131.99791 63.33125 132.91978Q63.034374 133.84166 62.409374 134.35728Q61.8 134.85728 60.846874 134.85728Q59.6125 134.85728 58.89375 133.96666Q58.05 132.90416 58.05 130.48228ZM59.128124 130.48228Q59.128124 132.59166 59.628124 133.29478Q60.128124 133.99791 60.846874 133.99791Q61.58125 133.99791 62.065624 133.29478Q62.565624 132.59166 62.565624 130.48228Q62.565624 128.35728 62.065624 127.669785Q61.58125 126.96666 60.83125 126.96666Q60.1125 126.96666 59.675 127.576035Q59.128124 128.35728 59.128124 130.48228ZM65.05 130.48228Q65.05 128.95103 65.3625 128.02916Q65.675 127.09166 66.28438 126.59166Q66.90938 126.09166 67.84688 126.09166Q68.53438 126.09166 69.05 126.37291Q69.58125 126.65416 69.925 127.18541Q70.26875 127.701035 70.45625 128.45103Q70.64375 129.20103 70.64375 130.48228Q70.64375 131.99791 70.33125 132.91978Q70.03438 133.84166 69.40938 134.35728Q68.8 134.85728 67.84688 134.85728Q66.6125 134.85728 65.89375 133.96666Q65.05 132.90416 65.05 130.48228ZM66.12813 130.48228Q66.12813 132.59166 66.62813 133.29478Q67.12813 133.99791 67.84688 133.99791Q68.58125 133.99791 69.06563 133.29478Q69.56563 132.59166 69.56563 130.48228Q69.56563 128.35728 69.06563 127.669785Q68.58125 126.96666 67.83125 126.96666Q67.1125 126.96666 66.675 127.576035Q66.12813 128.35728 66.12813 130.48228ZM72.05 130.48228Q72.05 128.95103 72.3625 128.02916Q72.675 127.09166 73.28438 126.59166Q73.90938 126.09166 74.84688 126.09166Q75.53438 126.09166 76.05 126.37291Q76.58125 126.65416 76.925 127.18541Q77.26875 127.701035 77.45625 128.45103Q77.64375 129.20103 77.64375 130.48228Q77.64375 131.99791 77.33125 132.91978Q77.03438 133.84166 76.40938 134.35728Q75.8 134.85728 74.84688 134.85728Q73.6125 134.85728 72.89375 133.96666Q72.05 132.90416 72.05 130.48228ZM73.12813 130.48228Q73.12813 132.59166 73.62813 133.29478Q74.12813 133.99791 74.84688 133.99791Q75.58125 133.99791 76.06563 133.29478Q76.56563 132.59166 76.56563 130.48228Q76.56563 128.35728 76.06563 127.669785Q75.58125 126.96666 74.83125 126.96666Q74.1125 126.96666 73.675 127.576035Q73.12813 128.35728 73.12813 130.48228Z" fill-rule="nonzero"/><path fill="#000000" d="M56.596874 91.26771L56.596874 92.28333L50.909374 92.28333Q50.909374 91.90833 51.034374 91.54896Q51.253124 90.97083 51.721874 90.40833Q52.20625 89.84583 53.1125 89.11146Q54.51875 87.95521 55.003124 87.28333Q55.503124 86.61146 55.503124 86.01771Q55.503124 85.39271 55.05 84.97083Q54.596874 84.53333 53.878124 84.53333Q53.1125 84.53333 52.659374 84.98646Q52.20625 85.43958 52.190624 86.25208L51.1125 86.14271Q51.221874 84.92396 51.940624 84.29896Q52.675 83.65833 53.909374 83.65833Q55.14375 83.65833 55.8625 84.34583Q56.58125 85.03333 56.58125 86.04896Q56.58125 86.56458 56.3625 87.06458Q56.159374 87.54896 55.659374 88.11146Q55.175 88.65833 54.05 89.61146Q53.096874 90.40833 52.815624 90.70521Q52.55 90.98646 52.378124 91.26771L56.596874 91.26771ZM58.05 90.03333L59.159374 89.93958Q59.284374 90.75208 59.721874 91.15833Q60.175 91.56458 60.815624 91.56458Q61.565624 91.56458 62.096874 90.98646Q62.628124 90.40833 62.628124 89.47083Q62.628124 88.56458 62.1125 88.04896Q61.6125 87.51771 60.784374 87.51771Q60.284374 87.51771 59.8625 87.75208Q59.45625 87.98646 59.221874 88.34583L58.2375 88.22083L59.065624 83.81458L63.346874 83.81458L63.346874 84.81458L59.909374 84.81458L59.45625 87.12708Q60.221874 86.58021 61.065624 86.58021Q62.190624 86.58021 62.95625 87.36146Q63.7375 88.14271 63.7375 89.37708Q63.7375 90.53333 63.065624 91.39271Q62.2375 92.42396 60.815624 92.42396Q59.64375 92.42396 58.89375 91.76771Q58.159374 91.11146 58.05 90.03333ZM65.05 88.04896Q65.05 86.51771 65.3625 85.59583Q65.675 84.65833 66.28438 84.15833Q66.90938 83.65833 67.84688 83.65833Q68.53438 83.65833 69.05 83.93958Q69.58125 84.22083 69.925 84.75208Q70.26875 85.26771 70.45625 86.01771Q70.64375 86.76771 70.64375 88.04896Q70.64375 89.56458 70.33125 90.48646Q70.03438 91.40833 69.40938 91.92396Q68.8 92.42396 67.84688 92.42396Q66.6125 92.42396 65.89375 91.53333Q65.05 90.47083 65.05 88.04896ZM66.12813 88.04896Q66.12813 90.15833 66.62813 90.86146Q67.12813 91.56458 67.84688 91.56458Q68.58125 91.56458 69.06563 90.86146Q69.56563 90.15833 69.56563 88.04896Q69.56563 85.92396 69.06563 85.23646Q68.58125 84.53333 67.83125 84.53333Q67.1125 84.53333 66.675 85.14271Q66.12813 85.92396 66.12813 88.04896ZM72.05 88.04896Q72.05 86.51771 72.3625 85.59583Q72.675 84.65833 73.28438 84.15833Q73.90938 83.65833 74.84688 83.65833Q75.53438 83.65833 76.05 83.93958Q76.58125 84.22083 76.925 84.75208Q77.26875 85.26771 77.45625 86.01771Q77.64375 86.76771 77.64375 88.04896Q77.64375 89.56458 77.33125 90.48646Q77.03438 91.40833 76.40938 91.92396Q75.8 92.42396 74.84688 92.42396Q73.6125 92.42396 72.89375 91.53333Q72.05 90.47083 72.05 88.04896ZM73.12813 88.04896Q73.12813 90.15833 73.62813 90.86146Q74.12813 91.56458 74.84688 91.56458Q75.58125 91.56458 76.06563 90.86146Q76.56563 90.15833 76.56563 88.04896Q76.56563 85.92396 76.06563 85.23646Q75.58125 84.53333 74.83125 84.53333Q74.1125 84.53333 73.675 85.14271Q73.12813 85.92396 73.12813 88.04896Z" fill-rule="nonzero"/><path fill="#000000" d="M93.38095 313.21564Q93.38095 311.6844 93.69345 310.7625Q94.00595 309.825 94.615326 309.325Q95.240326 308.825 96.177826 308.825Q96.865326 308.825 97.38095 309.10626Q97.9122 309.3875 98.25595 309.91876Q98.5997 310.4344 98.7872 311.1844Q98.9747 311.9344 98.9747 313.21564Q98.9747 314.73126 98.6622 315.65314Q98.365326 316.575 97.740326 317.09064Q97.13095 317.59064 96.177826 317.59064Q94.94345 317.59064 94.2247 316.7Q93.38095 315.6375 93.38095 313.21564ZM94.459076 313.21564Q94.459076 315.325 94.959076 316.02814Q95.459076 316.73126 96.177826 316.73126Q96.9122 316.73126 97.396576 316.02814Q97.896576 315.325 97.896576 313.21564Q97.896576 311.09064 97.396576 310.40314Q96.9122 309.7 96.1622 309.7Q95.44345 309.7 95.00595 310.3094Q94.459076 311.09064 94.459076 313.21564Z" fill-rule="nonzero"/><path fill="#000000" d="M121.011604 317.45L119.96473 317.45L119.96473 310.73126Q119.574104 311.09064 118.949104 311.46564Q118.33973 311.825 117.855354 311.9969L117.855354 310.98126Q118.730354 310.5594 119.386604 309.98126Q120.05848 309.3875 120.33973 308.825L121.011604 308.825L121.011604 317.45Z" fill-rule="nonzero"/><path fill="#000000" d="M146.25163 316.4344L146.25163 317.45L140.56413 317.45Q140.56413 317.075 140.68913 316.71564Q140.90788 316.1375 141.37663 315.575Q141.86101 315.0125 142.76726 314.27814Q144.17351 313.1219 144.65788 312.45Q145.15788 311.77814 145.15788 311.1844Q145.15788 310.5594 144.70476 310.1375Q144.25163 309.7 143.53288 309.7Q142.76726 309.7 142.31413 310.15314Q141.86101 310.60626 141.84538 311.41876L140.76726 311.3094Q140.87663 310.09064 141.59538 309.46564Q142.32976 308.825 143.56413 308.825Q144.79851 308.825 145.51726 309.5125Q146.23601 310.2 146.23601 311.21564Q146.23601 311.73126 146.01726 312.23126Q145.81413 312.71564 145.31413 313.27814Q144.82976 313.825 143.70476 314.77814Q142.75163 315.575 142.47038 315.8719Q142.20476 316.15314 142.03288 316.4344L146.25163 316.4344Z" fill-rule="nonzero"/><path fill="#000000" d="M164.36667 315.1844L165.42917 315.04376Q165.60104 315.9344 166.03854 316.34064Q166.47604 316.73126 167.10104 316.73126Q167.85104 316.73126 168.36667 316.21564Q168.8823 315.7 168.8823 314.9344Q168.8823 314.21564 168.39792 313.7469Q167.92917 313.2625 167.1948 313.2625Q166.89792 313.2625 166.4448 313.3875L166.5698 312.45Q166.67917 312.46564 166.74167 312.46564Q167.41354 312.46564 167.9448 312.1219Q168.49167 311.7625 168.49167 311.02814Q168.49167 310.45 168.10104 310.075Q167.71042 309.6844 167.08542 309.6844Q166.47604 309.6844 166.05417 310.075Q165.64792 310.46564 165.53854 311.23126L164.47604 311.04376Q164.66354 309.9969 165.35104 309.41876Q166.03854 308.825 167.05417 308.825Q167.7573 308.825 168.35104 309.1375Q168.9448 309.4344 169.2573 309.95Q169.5698 310.46564 169.5698 311.0594Q169.5698 311.60626 169.27292 312.075Q168.97604 312.52814 168.39792 312.79376Q169.14792 312.96564 169.5698 313.52814Q169.99167 314.075 169.99167 314.91876Q169.99167 316.04376 169.16354 316.825Q168.35104 317.60626 167.10104 317.60626Q165.97604 317.60626 165.22604 316.9344Q164.47604 316.2469 164.36667 315.1844Z" fill-rule="nonzero"/><path fill="#000000" d="M191.40356 317.45L191.40356 315.3875L187.68481 315.3875L187.68481 314.41876L191.60669 308.85626L192.46606 308.85626L192.46606 314.41876L193.62231 314.41876L193.62231 315.3875L192.46606 315.3875L192.46606 317.45L191.40356 317.45ZM191.40356 314.41876L191.40356 310.5594L188.71606 314.41876L191.40356 314.41876Z" fill-rule="nonzero"/><path fill="#000000" d="M211.69048 315.2L212.79985 315.10626Q212.92485 315.91876 213.36235 316.325Q213.81548 316.73126 214.4561 316.73126Q215.2061 316.73126 215.73735 316.15314Q216.2686 315.575 216.2686 314.6375Q216.2686 313.73126 215.75298 313.21564Q215.25298 312.6844 214.42485 312.6844Q213.92485 312.6844 213.50298 312.91876Q213.09673 313.15314 212.86235 313.5125L211.87798 313.3875L212.7061 308.98126L216.98735 308.98126L216.98735 309.98126L213.54985 309.98126L213.09673 312.29376Q213.86235 311.7469 214.7061 311.7469Q215.8311 311.7469 216.59673 312.52814Q217.37798 313.3094 217.37798 314.54376Q217.37798 315.7 216.7061 316.5594Q215.87798 317.59064 214.4561 317.59064Q213.28423 317.59064 212.53423 316.9344Q211.79985 316.27814 211.69048 315.2Z" fill-rule="nonzero"/><path fill="#000000" d="M240.82114 310.96564L239.77426 311.04376Q239.63364 310.41876 239.38364 310.1375Q238.94614 309.6844 238.32114 309.6844Q237.82114 309.6844 237.43051 309.96564Q236.94614 310.34064 236.64926 311.04376Q236.36801 311.73126 236.35239 313.0125Q236.72739 312.4344 237.27426 312.15314Q237.83676 311.8719 238.44614 311.8719Q239.49301 311.8719 240.22739 312.65314Q240.97739 313.4344 240.97739 314.65314Q240.97739 315.46564 240.61801 316.16876Q240.27426 316.85626 239.66489 317.23126Q239.05551 317.59064 238.28989 317.59064Q236.96176 317.59064 236.13364 316.6219Q235.30551 315.65314 235.30551 313.4344Q235.30551 310.9344 236.22739 309.8094Q237.02426 308.825 238.38364 308.825Q239.39926 308.825 240.03989 309.40314Q240.69614 309.96564 240.82114 310.96564ZM236.52426 314.66876Q236.52426 315.21564 236.74301 315.71564Q236.97739 316.2 237.38364 316.46564Q237.80551 316.73126 238.27426 316.73126Q238.93051 316.73126 239.41489 316.2Q239.89926 315.65314 239.89926 314.73126Q239.89926 313.84064 239.41489 313.325Q238.94614 312.8094 238.22739 312.8094Q237.50864 312.8094 237.00864 313.325Q236.52426 313.84064 236.52426 314.66876Z" fill-rule="nonzero"/><path fill="#000000" d="M259.07678 309.98126L259.07678 308.96564L264.63928 308.96564L264.63928 309.79376Q263.82678 310.66876 263.01428 312.1219Q262.2174 313.5594 261.7799 315.09064Q261.45178 316.16876 261.37366 317.45L260.2799 317.45Q260.29553 316.4344 260.67053 314.9969Q261.06116 313.5594 261.76428 312.23126Q262.48303 310.90314 263.29553 309.98126L259.07678 309.98126Z" fill-rule="nonzero"/><path fill="#000000" d="M284.30118 312.79376Q283.64493 312.54376 283.3168 312.10626Q283.0043 311.65314 283.0043 311.04376Q283.0043 310.10626 283.67618 309.46564Q284.36368 308.825 285.47305 308.825Q286.59805 308.825 287.28555 309.48126Q287.97305 310.1375 287.97305 311.075Q287.97305 311.66876 287.66055 312.10626Q287.34805 312.54376 286.70743 312.79376Q287.5043 313.04376 287.91055 313.6219Q288.3168 314.2 288.3168 314.9969Q288.3168 316.09064 287.53555 316.84064Q286.76993 317.59064 285.48868 317.59064Q284.22305 317.59064 283.4418 316.84064Q282.66055 316.09064 282.66055 314.96564Q282.66055 314.1219 283.08243 313.5594Q283.51993 312.9969 284.30118 312.79376ZM284.08243 310.9969Q284.08243 311.60626 284.47305 311.9969Q284.8793 312.3875 285.5043 312.3875Q286.11368 312.3875 286.5043 312.0125Q286.89493 311.6219 286.89493 311.0594Q286.89493 310.48126 286.48868 310.09064Q286.08243 309.6844 285.48868 309.6844Q284.8793 309.6844 284.47305 310.075Q284.08243 310.46564 284.08243 310.9969ZM283.7543 314.96564Q283.7543 315.41876 283.95743 315.84064Q284.17618 316.2625 284.59805 316.4969Q285.01993 316.73126 285.5043 316.73126Q286.2543 316.73126 286.73868 316.2469Q287.23868 315.7625 287.23868 315.0125Q287.23868 314.2469 286.73868 313.7469Q286.23868 313.2469 285.47305 313.2469Q284.72305 313.2469 284.23868 313.7469Q283.7543 314.23126 283.7543 314.96564Z" fill-rule="nonzero"/><path fill="#000000" d="M306.49435 315.46564L307.50998 315.3719Q307.63498 316.09064 307.99435 316.41876Q308.36935 316.73126 308.93185 316.73126Q309.41623 316.73126 309.7756 316.5125Q310.1506 316.27814 310.38498 315.91876Q310.61935 315.54376 310.7756 314.91876Q310.93185 314.27814 310.93185 313.6219Q310.93185 313.54376 310.93185 313.40314Q310.61935 313.90314 310.07248 314.23126Q309.5256 314.54376 308.88498 314.54376Q307.80685 314.54376 307.07248 313.77814Q306.3381 312.9969 306.3381 311.73126Q306.3381 310.41876 307.10373 309.6219Q307.88498 308.825 309.04123 308.825Q309.86935 308.825 310.55685 309.27814Q311.25998 309.73126 311.61935 310.575Q311.97873 311.40314 311.97873 312.98126Q311.97873 314.6219 311.61935 315.60626Q311.2756 316.575 310.55685 317.09064Q309.85373 317.59064 308.91623 317.59064Q307.9006 317.59064 307.25998 317.04376Q306.61935 316.48126 306.49435 315.46564ZM310.80685 311.66876Q310.80685 310.7625 310.32248 310.23126Q309.85373 309.7 309.16623 309.7Q308.4631 309.7 307.93185 310.27814Q307.41623 310.84064 307.41623 311.7625Q307.41623 312.575 307.91623 313.09064Q308.41623 313.60626 309.13498 313.60626Q309.86935 313.60626 310.3381 313.09064Q310.80685 312.575 310.80685 311.66876Z" fill-rule="nonzero"/><path fill="#000000" d="M330.46875 317.45L329.42188 317.45L329.42188 310.73126Q329.03125 311.09064 328.40625 311.46564Q327.79688 311.825 327.3125 311.9969L327.3125 310.98126Q328.1875 310.5594 328.84375 309.98126Q329.51562 309.3875 329.79688 308.825L330.46875 308.825L330.46875 317.45ZM333.5 313.21564Q333.5 311.6844 333.8125 310.7625Q334.125 309.825 334.73438 309.325Q335.35938 308.825 336.29688 308.825Q336.98438 308.825 337.5 309.10626Q338.03125 309.3875 338.375 309.91876Q338.71875 310.4344 338.90625 311.1844Q339.09375 311.9344 339.09375 313.21564Q339.09375 314.73126 338.78125 315.65314Q338.48438 316.575 337.85938 317.09064Q337.25 317.59064 336.29688 317.59064Q335.0625 317.59064 334.34375 316.7Q333.5 315.6375 333.5 313.21564ZM334.57812 313.21564Q334.57812 315.325 335.07812 316.02814Q335.57812 316.73126 336.29688 316.73126Q337.03125 316.73126 337.51562 316.02814Q338.01562 315.325 338.01562 313.21564Q338.01562 311.09064 337.51562 310.40314Q337.03125 309.7 336.28125 309.7Q335.5625 309.7 335.125 310.3094Q334.57812 311.09064 334.57812 313.21564Z" fill-rule="nonzero"/><path fill="#000000" d="M354.13065 317.45L353.08377 317.45L353.08377 310.73126Q352.69315 311.09064 352.06815 311.46564Q351.45877 311.825 350.9744 311.9969L350.9744 310.98126Q351.8494 310.5594 352.50565 309.98126Q353.17752 309.3875 353.45877 308.825L354.13065 308.825L354.13065 317.45ZM361.13065 317.45L360.08377 317.45L360.08377 310.73126Q359.69315 311.09064 359.06815 311.46564Q358.45877 311.825 357.9744 311.9969L357.9744 310.98126Q358.8494 310.5594 359.50565 309.98126Q360.17752 309.3875 360.45877 308.825L361.13065 308.825L361.13065 317.45Z" fill-rule="nonzero"/><path fill="#000000" d="M377.79257 317.45L376.7457 317.45L376.7457 310.73126Q376.35507 311.09064 375.73007 311.46564Q375.1207 311.825 374.63632 311.9969L374.63632 310.98126Q375.51132 310.5594 376.16757 309.98126Q376.83945 309.3875 377.1207 308.825L377.79257 308.825L377.79257 317.45ZM386.3707 316.4344L386.3707 317.45L380.6832 317.45Q380.6832 317.075 380.8082 316.71564Q381.02695 316.1375 381.4957 315.575Q381.98007 315.0125 382.88632 314.27814Q384.29257 313.1219 384.77695 312.45Q385.27695 311.77814 385.27695 311.1844Q385.27695 310.5594 384.82382 310.1375Q384.3707 309.7 383.65195 309.7Q382.88632 309.7 382.4332 310.15314Q381.98007 310.60626 381.96445 311.41876L380.88632 311.3094Q380.9957 310.09064 381.71445 309.46564Q382.44882 308.825 383.6832 308.825Q384.91757 308.825 385.63632 309.5125Q386.35507 310.2 386.35507 311.21564Q386.35507 311.73126 386.13632 312.23126Q385.9332 312.71564 385.4332 313.27814Q384.94882 313.825 383.82382 314.77814Q382.8707 315.575 382.58945 315.8719Q382.32382 316.15314 382.15195 316.4344L386.3707 316.4344Z" fill-rule="nonzero"/><path fill="#000000" d="M401.45447 317.45L400.4076 317.45L400.4076 310.73126Q400.01697 311.09064 399.39197 311.46564Q398.7826 311.825 398.29822 311.9969L398.29822 310.98126Q399.17322 310.5594 399.82947 309.98126Q400.50134 309.3875 400.7826 308.825L401.45447 308.825L401.45447 317.45ZM404.48572 315.1844L405.54822 315.04376Q405.7201 315.9344 406.1576 316.34064Q406.5951 316.73126 407.2201 316.73126Q407.9701 316.73126 408.48572 316.21564Q409.00134 315.7 409.00134 314.9344Q409.00134 314.21564 408.51697 313.7469Q408.04822 313.2625 407.31384 313.2625Q407.01697 313.2625 406.56384 313.3875L406.68884 312.45Q406.79822 312.46564 406.86072 312.46564Q407.5326 312.46564 408.06384 312.1219Q408.61072 311.7625 408.61072 311.02814Q408.61072 310.45 408.2201 310.075Q407.82947 309.6844 407.20447 309.6844Q406.5951 309.6844 406.17322 310.075Q405.76697 310.46564 405.6576 311.23126L404.5951 311.04376Q404.7826 309.9969 405.4701 309.41876Q406.1576 308.825 407.17322 308.825Q407.87634 308.825 408.4701 309.1375Q409.06384 309.4344 409.37634 309.95Q409.68884 310.46564 409.68884 311.0594Q409.68884 311.60626 409.39197 312.075Q409.0951 312.52814 408.51697 312.79376Q409.26697 312.96564 409.68884 313.52814Q410.11072 314.075 410.11072 314.91876Q410.11072 316.04376 409.2826 316.825Q408.4701 317.60626 407.2201 317.60626Q406.0951 317.60626 405.3451 316.9344Q404.5951 316.2469 404.48572 315.1844Z" fill-rule="nonzero"/><path fill="#000000" d="M425.11636 317.45L424.0695 317.45L424.0695 310.73126Q423.67886 311.09064 423.05386 311.46564Q422.4445 311.825 421.9601 311.9969L421.9601 310.98126Q422.8351 310.5594 423.49136 309.98126Q424.16324 309.3875 424.4445 308.825L425.11636 308.825L425.11636 317.45ZM431.5226 317.45L431.5226 315.3875L427.80386 315.3875L427.80386 314.41876L431.72574 308.85626L432.5851 308.85626L432.5851 314.41876L433.74136 314.41876L433.74136 315.3875L432.5851 315.3875L432.5851 317.45L431.5226 317.45ZM431.5226 314.41876L431.5226 310.5594L428.8351 314.41876L431.5226 314.41876Z" fill-rule="nonzero"/><path fill="#000000" d="M448.77826 317.45L447.73138 317.45L447.73138 310.73126Q447.34076 311.09064 446.71576 311.46564Q446.10638 311.825 445.622 311.9969L445.622 310.98126Q446.497 310.5594 447.15326 309.98126Q447.82513 309.3875 448.10638 308.825L448.77826 308.825L448.77826 317.45ZM451.8095 315.2L452.91888 315.10626Q453.04388 315.91876 453.48138 316.325Q453.9345 316.73126 454.57513 316.73126Q455.32513 316.73126 455.85638 316.15314Q456.38763 315.575 456.38763 314.6375Q456.38763 313.73126 455.872 313.21564Q455.372 312.6844 454.54388 312.6844Q454.04388 312.6844 453.622 312.91876Q453.21576 313.15314 452.98138 313.5125L451.997 313.3875L452.82513 308.98126L457.10638 308.98126L457.10638 309.98126L453.66888 309.98126L453.21576 312.29376Q453.98138 311.7469 454.82513 311.7469Q455.95013 311.7469 456.71576 312.52814Q457.497 313.3094 457.497 314.54376Q457.497 315.7 456.82513 316.5594Q455.997 317.59064 454.57513 317.59064Q453.40326 317.59064 452.65326 316.9344Q451.91888 316.27814 451.8095 315.2Z" fill-rule="nonzero"/><path fill="#000000" d="M472.4402 317.45L471.3933 317.45L471.3933 310.73126Q471.0027 311.09064 470.3777 311.46564Q469.7683 311.825 469.28394 311.9969L469.28394 310.98126Q470.15894 310.5594 470.8152 309.98126Q471.48706 309.3875 471.7683 308.825L472.4402 308.825L472.4402 317.45ZM480.9402 310.96564L479.8933 311.04376Q479.7527 310.41876 479.5027 310.1375Q479.0652 309.6844 478.4402 309.6844Q477.9402 309.6844 477.54956 309.96564Q477.0652 310.34064 476.7683 311.04376Q476.48706 311.73126 476.47144 313.0125Q476.84644 312.4344 477.3933 312.15314Q477.9558 311.8719 478.5652 311.8719Q479.61206 311.8719 480.34644 312.65314Q481.09644 313.4344 481.09644 314.65314Q481.09644 315.46564 480.73706 316.16876Q480.3933 316.85626 479.78394 317.23126Q479.17456 317.59064 478.40894 317.59064Q477.0808 317.59064 476.2527 316.6219Q475.42456 315.65314 475.42456 313.4344Q475.42456 310.9344 476.34644 309.8094Q477.1433 308.825 478.5027 308.825Q479.5183 308.825 480.15894 309.40314Q480.8152 309.96564 480.9402 310.96564ZM476.6433 314.66876Q476.6433 315.21564 476.86206 315.71564Q477.09644 316.2 477.5027 316.46564Q477.92456 316.73126 478.3933 316.73126Q479.04956 316.73126 479.53394 316.2Q480.0183 315.65314 480.0183 314.73126Q480.0183 313.84064 479.53394 313.325Q479.0652 312.8094 478.34644 312.8094Q477.6277 312.8094 477.1277 313.325Q476.6433 313.84064 476.6433 314.66876Z" fill-rule="nonzero"/><path fill="#000000" d="M496.10208 317.45L495.0552 317.45L495.0552 310.73126Q494.66458 311.09064 494.03958 311.46564Q493.4302 311.825 492.94583 311.9969L492.94583 310.98126Q493.82083 310.5594 494.47708 309.98126Q495.14896 309.3875 495.4302 308.825L496.10208 308.825L496.10208 317.45ZM499.19583 309.98126L499.19583 308.96564L504.75833 308.96564L504.75833 309.79376Q503.94583 310.66876 503.13333 312.1219Q502.33646 313.5594 501.89896 315.09064Q501.57083 316.16876 501.4927 317.45L500.39896 317.45Q500.41458 316.4344 500.78958 314.9969Q501.1802 313.5594 501.88333 312.23126Q502.60208 310.90314 503.41458 309.98126L499.19583 309.98126Z" fill-rule="nonzero"/><path fill="#000000" d="M519.764 317.45L518.7171 317.45L518.7171 310.73126Q518.3265 311.09064 517.7015 311.46564Q517.0921 311.825 516.6077 311.9969L516.6077 310.98126Q517.4827 310.5594 518.139 309.98126Q518.81085 309.3875 519.0921 308.825L519.764 308.825L519.764 317.45ZM524.4202 312.79376Q523.764 312.54376 523.43585 312.10626Q523.12335 311.65314 523.12335 311.04376Q523.12335 310.10626 523.7952 309.46564Q524.4827 308.825 525.5921 308.825Q526.7171 308.825 527.4046 309.48126Q528.0921 310.1375 528.0921 311.075Q528.0921 311.66876 527.7796 312.10626Q527.4671 312.54376 526.8265 312.79376Q527.62335 313.04376 528.0296 313.6219Q528.43585 314.2 528.43585 314.9969Q528.43585 316.09064 527.6546 316.84064Q526.889 317.59064 525.6077 317.59064Q524.3421 317.59064 523.56085 316.84064Q522.7796 316.09064 522.7796 314.96564Q522.7796 314.1219 523.2015 313.5594Q523.639 312.9969 524.4202 312.79376ZM524.2015 310.9969Q524.2015 311.60626 524.5921 311.9969Q524.99835 312.3875 525.62335 312.3875Q526.2327 312.3875 526.62335 312.0125Q527.014 311.6219 527.014 311.0594Q527.014 310.48126 526.6077 310.09064Q526.2015 309.6844 525.6077 309.6844Q524.99835 309.6844 524.5921 310.075Q524.2015 310.46564 524.2015 310.9969ZM523.87335 314.96564Q523.87335 315.41876 524.0765 315.84064Q524.2952 316.2625 524.7171 316.4969Q525.139 316.73126 525.62335 316.73126Q526.37335 316.73126 526.8577 316.2469Q527.3577 315.7625 527.3577 315.0125Q527.3577 314.2469 526.8577 313.7469Q526.3577 313.2469 525.5921 313.2469Q524.8421 313.2469 524.3577 313.7469Q523.87335 314.23126 523.87335 314.96564Z" fill-rule="nonzero"/><path fill="#000000" d="M543.4259 317.45L542.379 317.45L542.379 310.73126Q541.9884 311.09064 541.3634 311.46564Q540.754 311.825 540.26965 311.9969L540.26965 310.98126Q541.14465 310.5594 541.8009 309.98126Q542.4728 309.3875 542.754 308.825L543.4259 308.825L543.4259 317.45ZM546.6134 315.46564L547.629 315.3719Q547.754 316.09064 548.1134 316.41876Q548.4884 316.73126 549.0509 316.73126Q549.5353 316.73126 549.89465 316.5125Q550.26965 316.27814 550.504 315.91876Q550.7384 315.54376 550.89465 314.91876Q551.0509 314.27814 551.0509 313.6219Q551.0509 313.54376 551.0509 313.40314Q550.7384 313.90314 550.1915 314.23126Q549.64465 314.54376 549.004 314.54376Q547.9259 314.54376 547.1915 313.77814Q546.45715 312.9969 546.45715 311.73126Q546.45715 310.41876 547.2228 309.6219Q548.004 308.825 549.1603 308.825Q549.9884 308.825 550.6759 309.27814Q551.379 309.73126 551.7384 310.575Q552.0978 311.40314 552.0978 312.98126Q552.0978 314.6219 551.7384 315.60626Q551.39465 316.575 550.6759 317.09064Q549.9728 317.59064 549.0353 317.59064Q548.01965 317.59064 547.379 317.04376Q546.7384 316.48126 546.6134 315.46564ZM550.9259 311.66876Q550.9259 310.7625 550.4415 310.23126Q549.9728 309.7 549.2853 309.7Q548.58215 309.7 548.0509 310.27814Q547.5353 310.84064 547.5353 311.7625Q547.5353 312.575 548.0353 313.09064Q548.5353 313.60626 549.254 313.60626Q549.9884 313.60626 550.45715 313.09064Q550.9259 312.575 550.9259 311.66876Z" fill-rule="nonzero"/><path fill="#000000" d="M568.6659 316.4344L568.6659 317.45L562.9784 317.45Q562.9784 317.075 563.1034 316.71564Q563.32214 316.1375 563.7909 315.575Q564.27527 315.0125 565.1815 314.27814Q566.58777 313.1219 567.07214 312.45Q567.57214 311.77814 567.57214 311.1844Q567.57214 310.5594 567.119 310.1375Q566.6659 309.7 565.94714 309.7Q565.1815 309.7 564.7284 310.15314Q564.27527 310.60626 564.25964 311.41876L563.1815 311.3094Q563.2909 310.09064 564.00964 309.46564Q564.744 308.825 565.9784 308.825Q567.21277 308.825 567.9315 309.5125Q568.65027 310.2 568.65027 311.21564Q568.65027 311.73126 568.4315 312.23126Q568.2284 312.71564 567.7284 313.27814Q567.244 313.825 566.119 314.77814Q565.1659 315.575 564.88464 315.8719Q564.619 316.15314 564.44714 316.4344L568.6659 316.4344ZM570.119 313.21564Q570.119 311.6844 570.4315 310.7625Q570.744 309.825 571.3534 309.325Q571.9784 308.825 572.9159 308.825Q573.6034 308.825 574.119 309.10626Q574.65027 309.3875 574.994 309.91876Q575.33777 310.4344 575.52527 311.1844Q575.71277 311.9344 575.71277 313.21564Q575.71277 314.73126 575.40027 315.65314Q575.1034 316.575 574.4784 317.09064Q573.869 317.59064 572.9159 317.59064Q571.6815 317.59064 570.96277 316.7Q570.119 315.6375 570.119 313.21564ZM571.19714 313.21564Q571.19714 315.325 571.69714 316.02814Q572.19714 316.73126 572.9159 316.73126Q573.65027 316.73126 574.13464 316.02814Q574.63464 315.325 574.63464 313.21564Q574.63464 311.09064 574.13464 310.40314Q573.65027 309.7 572.90027 309.7Q572.1815 309.7 571.744 310.3094Q571.19714 311.09064 571.19714 313.21564Z" fill-rule="nonzero"/><path fill="#4285f4" d="M258.5 61.916668C258.5 65.23038 255.8137 67.916664 252.5 67.916664C249.1863 67.916664 246.5 65.23038 246.5 61.916668C246.5 58.60296 249.1863 55.916668 252.5 55.916668C255.8137 55.916668 258.5 58.60296 258.5 61.916668Z" fill-rule="nonzero"/><path fill="#1a1a1a" d="M267.39062 65.916664L267.39062 57.322914L269.10938 57.322914L271.14062 63.40104Q271.42188 64.260414 271.54688 64.68229Q271.6875 64.21354 272.0 63.30729L274.0625 57.322914L275.59375 57.322914L275.59375 65.916664L274.5 65.916664L274.5 58.729164L272.0 65.916664L270.96875 65.916664L268.48438 58.604164L268.48438 65.916664L267.39062 65.916664ZM280.54688 63.916664L281.64062 64.041664Q281.39062 64.99479 280.6875 65.52604Q279.98438 66.05729 278.90625 66.05729Q277.54688 66.05729 276.73438 65.21354Q275.9375 64.36979 275.9375 62.854164Q275.9375 61.291664 276.75 60.43229Q277.5625 59.55729 278.84375 59.55729Q280.09375 59.55729 280.875 60.40104Q281.67188 61.24479 281.67188 62.791664Q281.67188 62.885414 281.67188 63.072914L277.03125 63.072914Q277.09375 64.104164 277.60938 64.65104Q278.125 65.18229 278.90625 65.18229Q279.48438 65.18229 279.89062 64.885414Q280.3125 64.572914 280.54688 63.916664ZM277.09375 62.21354L280.5625 62.21354Q280.5 61.416664 280.17188 61.02604Q279.65625 60.416664 278.85938 60.416664Q278.125 60.416664 277.625 60.90104Q277.14062 61.385414 277.09375 62.21354ZM287.35938 65.15104Q286.76562 65.65104 286.21875 65.854164Q285.6875 66.05729 285.0625 66.05729Q284.03125 66.05729 283.48438 65.55729Q282.9375 65.05729 282.9375 64.27604Q282.9375 63.822914 283.14062 63.447914Q283.34375 63.05729 283.6875 62.83854Q284.03125 62.604164 284.45312 62.49479Q284.75 62.40104 285.39062 62.322914Q286.65625 62.18229 287.26562 61.96354Q287.26562 61.74479 287.26562 61.697914Q287.26562 61.041664 286.96875 60.77604Q286.5625 60.43229 285.76562 60.43229Q285.03125 60.43229 284.67188 60.697914Q284.3125 60.947914 284.14062 61.604164L283.10938 61.46354Q283.25 60.80729 283.57812 60.40104Q283.90625 59.99479 284.51562 59.77604Q285.125 59.55729 285.92188 59.55729Q286.71875 59.55729 287.21875 59.74479Q287.71875 59.93229 287.95312 60.21354Q288.1875 60.49479 288.28125 60.93229Q288.32812 61.197914 288.32812 61.90104L288.32812 63.30729Q288.32812 64.77604 288.39062 65.166664Q288.46875 65.55729 288.67188 65.916664L287.5625 65.916664Q287.40625 65.58854 287.35938 65.15104ZM287.26562 62.791664Q286.6875 63.02604 285.54688 63.197914Q284.89062 63.291664 284.625 63.416664Q284.35938 63.52604 284.20312 63.74479Q284.0625 63.96354 284.0625 64.24479Q284.0625 64.666664 284.375 64.947914Q284.70312 65.229164 285.3125 65.229164Q285.92188 65.229164 286.39062 64.96354Q286.875 64.697914 287.09375 64.229164Q287.26562 63.86979 287.26562 63.18229L287.26562 62.791664ZM290.29688 65.916664L290.29688 59.697914L291.23438 59.697914L291.23438 60.572914Q291.92188 59.55729 293.21875 59.55729Q293.78125 59.55729 294.25 59.760414Q294.73438 59.96354 294.96875 60.291664Q295.20312 60.61979 295.29688 61.05729Q295.34375 61.354164 295.34375 62.08854L295.34375 65.916664L294.29688 65.916664L294.29688 62.135414Q294.29688 61.479164 294.17188 61.166664Q294.04688 60.854164 293.73438 60.666664Q293.42188 60.46354 293.0 60.46354Q292.32812 60.46354 291.82812 60.90104Q291.34375 61.322914 291.34375 62.510414L291.34375 65.916664L290.29688 65.916664Z" fill-rule="nonzero"/><path fill="#ea4335" d="M324.5 61.916668C324.5 65.23038 321.81372 67.916664 318.5 67.916664C315.18628 67.916664 312.5 65.23038 312.5 61.916668C312.5 58.60296 315.18628 55.916668 318.5 55.916668C321.81372 55.916668 324.5 58.60296 324.5 61.916668Z" fill-rule="nonzero"/><path fill="#1a1a1a" d="M333.39062 65.916664L333.39062 57.322914L335.10938 57.322914L337.14062 63.40104Q337.42188 64.260414 337.54688 64.68229Q337.6875 64.21354 338.0 63.30729L340.0625 57.322914L341.59375 57.322914L341.59375 65.916664L340.5 65.916664L340.5 58.729164L338.0 65.916664L336.96875 65.916664L334.48438 58.604164L334.48438 65.916664L333.39062 65.916664ZM346.35938 65.15104Q345.76562 65.65104 345.21875 65.854164Q344.6875 66.05729 344.0625 66.05729Q343.03125 66.05729 342.48438 65.55729Q341.9375 65.05729 341.9375 64.27604Q341.9375 63.822914 342.14062 63.447914Q342.34375 63.05729 342.6875 62.83854Q343.03125 62.604164 343.45312 62.49479Q343.75 62.40104 344.39062 62.322914Q345.65625 62.18229 346.26562 61.96354Q346.26562 61.74479 346.26562 61.697914Q346.26562 61.041664 345.96875 60.77604Q345.5625 60.43229 344.76562 60.43229Q344.03125 60.43229 343.67188 60.697914Q343.3125 60.947914 343.14062 61.604164L342.10938 61.46354Q342.25 60.80729 342.57812 60.40104Q342.90625 59.99479 343.51562 59.77604Q344.125 59.55729 344.92188 59.55729Q345.71875 59.55729 346.21875 59.74479Q346.71875 59.93229 346.95312 60.21354Q347.1875 60.49479 347.28125 60.93229Q347.32812 61.197914 347.32812 61.90104L347.32812 63.30729Q347.32812 64.77604 347.39062 65.166664Q347.46875 65.55729 347.67188 65.916664L346.5625 65.916664Q346.40625 65.58854 346.35938 65.15104ZM346.26562 62.791664Q345.6875 63.02604 344.54688 63.197914Q343.89062 63.291664 343.625 63.416664Q343.35938 63.52604 343.20312 63.74479Q343.0625 63.96354 343.0625 64.24479Q343.0625 64.666664 343.375 64.947914Q343.70312 65.229164 344.3125 65.229164Q344.92188 65.229164 345.39062 64.96354Q345.875 64.697914 346.09375 64.229164Q346.26562 63.86979 346.26562 63.18229L346.26562 62.791664ZM348.59375 65.916664L350.85938 62.68229L348.76562 59.697914L350.07812 59.697914L351.03125 61.15104Q351.29688 61.572914 351.46875 61.854164Q351.71875 61.46354 351.9375 61.166664L352.98438 59.697914L354.25 59.697914L352.09375 62.61979L354.40625 65.916664L353.125 65.916664L351.84375 63.979164L351.5 63.46354L349.85938 65.916664L348.59375 65.916664Z" fill-rule="nonzero"/><path fill="#757575" d="M20.034374 37.55L20.034374 23.2375L22.89375 23.2375L26.26875 33.3625Q26.7375 34.784374 26.95625 35.4875Q27.20625 34.70625 27.721874 33.190624L31.14375 23.2375L33.690624 23.2375L33.690624 37.55L31.878124 37.55L31.878124 25.565624L27.70625 37.55L26.003124 37.55L21.8625 25.3625L21.8625 37.55L20.034374 37.55ZM43.971874 34.20625L45.784374 34.440624Q45.3625 36.01875 44.190624 36.909374Q43.034374 37.784374 41.221874 37.784374Q38.95625 37.784374 37.6125 36.39375Q36.284374 34.9875 36.284374 32.45625Q36.284374 29.83125 37.628124 28.39375Q38.971874 26.940624 41.128124 26.940624Q43.20625 26.940624 44.51875 28.3625Q45.846874 29.76875 45.846874 32.346874Q45.846874 32.503124 45.83125 32.815624L38.096874 32.815624Q38.190624 34.51875 39.065624 35.425Q39.940624 36.33125 41.2375 36.33125Q42.20625 36.33125 42.878124 35.83125Q43.565624 35.315624 43.971874 34.20625ZM38.190624 31.3625L43.9875 31.3625Q43.878124 30.065624 43.33125 29.409374Q42.4875 28.39375 41.14375 28.39375Q39.940624 28.39375 39.1125 29.20625Q38.284374 30.003124 38.190624 31.3625ZM54.64375 36.26875Q53.659374 37.096874 52.753124 37.440624Q51.846874 37.784374 50.815624 37.784374Q49.1125 37.784374 48.190624 36.95625Q47.26875 36.1125 47.26875 34.815624Q47.26875 34.05 47.6125 33.425Q47.971874 32.8 48.534374 32.425Q49.096874 32.034374 49.8 31.83125Q50.315624 31.70625 51.3625 31.565624Q53.4875 31.315624 54.4875 30.971874Q54.503124 30.6125 54.503124 30.503124Q54.503124 29.440624 54.003124 28.9875Q53.33125 28.39375 52.003124 28.39375Q50.753124 28.39375 50.159374 28.83125Q49.58125 29.26875 49.3 30.378124L47.58125 30.14375Q47.815624 29.034374 48.346874 28.3625Q48.878124 27.675 49.89375 27.315624Q50.909374 26.940624 52.253124 26.940624Q53.58125 26.940624 54.409374 27.253124Q55.2375 27.565624 55.628124 28.05Q56.01875 28.51875 56.175 29.2375Q56.26875 29.690624 56.26875 30.8625L56.26875 33.20625Q56.26875 35.659374 56.378124 36.315624Q56.4875 36.95625 56.83125 37.55L54.9875 37.55Q54.721874 37.003124 54.64375 36.26875ZM54.4875 32.346874Q53.534374 32.7375 51.6125 33.003124Q50.534374 33.159374 50.08125 33.3625Q49.64375 33.55 49.39375 33.925Q49.14375 34.3 49.14375 34.76875Q49.14375 35.471874 49.675 35.940624Q50.20625 36.409374 51.2375 36.409374Q52.253124 36.409374 53.034374 35.971874Q53.83125 35.51875 54.20625 34.753124Q54.4875 34.14375 54.4875 32.9875L54.4875 32.346874ZM58.8625 37.55L58.8625 27.175L60.45625 27.175L60.45625 28.659374Q61.596874 26.940624 63.753124 26.940624Q64.69063 26.940624 65.47188 27.284374Q66.26875 27.6125 66.65938 28.159374Q67.05 28.70625 67.20625 29.45625Q67.3 29.95625 67.3 31.175L67.3 37.55L65.53438 37.55L65.53438 31.2375Q65.53438 30.159374 65.33125 29.628124Q65.12813 29.096874 64.59688 28.784374Q64.08125 28.471874 63.378124 28.471874Q62.253124 28.471874 61.440624 29.190624Q60.628124 29.89375 60.628124 31.878124L60.628124 37.55L58.8625 37.55ZM81.64375 36.26875Q80.65938 37.096874 79.75313 37.440624Q78.84688 37.784374 77.81563 37.784374Q76.1125 37.784374 75.19063 36.95625Q74.26875 36.1125 74.26875 34.815624Q74.26875 34.05 74.6125 33.425Q74.97188 32.8 75.53438 32.425Q76.09688 32.034374 76.8 31.83125Q77.31563 31.70625 78.3625 31.565624Q80.4875 31.315624 81.4875 30.971874Q81.50313 30.6125 81.50313 30.503124Q81.50313 29.440624 81.00313 28.9875Q80.33125 28.39375 79.00313 28.39375Q77.75313 28.39375 77.15938 28.83125Q76.58125 29.26875 76.3 30.378124L74.58125 30.14375Q74.81563 29.034374 75.34688 28.3625Q75.87813 27.675 76.89375 27.315624Q77.90938 26.940624 79.25313 26.940624Q80.58125 26.940624 81.40938 27.253124Q82.2375 27.565624 82.62813 28.05Q83.01875 28.51875 83.175 29.2375Q83.26875 29.690624 83.26875 30.8625L83.26875 33.20625Q83.26875 35.659374 83.37813 36.315624Q83.4875 36.95625 83.83125 37.55L81.9875 37.55Q81.72188 37.003124 81.64375 36.26875ZM81.4875 32.346874Q80.53438 32.7375 78.6125 33.003124Q77.53438 33.159374 77.08125 33.3625Q76.64375 33.55 76.39375 33.925Q76.14375 34.3 76.14375 34.76875Q76.14375 35.471874 76.675 35.940624Q77.20625 36.409374 78.2375 36.409374Q79.25313 36.409374 80.03438 35.971874Q80.83125 35.51875 81.20625 34.753124Q81.4875 34.14375 81.4875 32.9875L81.4875 32.346874ZM85.8625 37.55L85.8625 27.175L87.45625 27.175L87.45625 28.659374Q88.59688 26.940624 90.75313 26.940624Q91.69063 26.940624 92.47188 27.284374Q93.26875 27.6125 93.65938 28.159374Q94.05 28.70625 94.20625 29.45625Q94.3 29.95625 94.3 31.175L94.3 37.55L92.53438 37.55L92.53438 31.2375Q92.53438 30.159374 92.33125 29.628124Q92.12813 29.096874 91.59688 28.784374Q91.08125 28.471874 90.37813 28.471874Q89.25313 28.471874 88.44063 29.190624Q87.62813 29.89375 87.62813 31.878124L87.62813 37.55L85.8625 37.55ZM102.59688 37.55L102.59688 36.2375Q101.6125 37.784374 99.69063 37.784374Q98.45625 37.784374 97.40938 37.096874Q96.37813 36.409374 95.8 35.190624Q95.2375 33.971874 95.2375 32.378124Q95.2375 30.815624 95.75313 29.55Q96.26875 28.284374 97.3 27.6125Q98.34688 26.940624 99.6125 26.940624Q100.55 26.940624 101.28438 27.346874Q102.01875 27.7375 102.4875 28.3625L102.4875 23.2375L104.22188 23.2375L104.22188 37.55L102.59688 37.55ZM97.03438 32.378124Q97.03438 34.3625 97.87813 35.346874Q98.72188 36.33125 99.8625 36.33125Q101.01875 36.33125 101.81563 35.39375Q102.62813 34.45625 102.62813 32.51875Q102.62813 30.39375 101.8 29.39375Q100.9875 28.39375 99.78438 28.39375Q98.6125 28.39375 97.81563 29.3625Q97.03438 30.315624 97.03438 32.378124ZM113.03438 37.55L113.03438 23.2375L115.89375 23.2375L119.26875 33.3625Q119.7375 34.784374 119.95625 35.4875Q120.20625 34.70625 120.72188 33.190624L124.14375 23.2375L126.69063 23.2375L126.69063 37.55L124.87813 37.55L124.87813 25.565624L120.70625 37.55L119.00313 37.55L114.8625 25.3625L114.8625 37.55L113.03438 37.55ZM136.64375 36.26875Q135.65938 37.096874 134.75313 37.440624Q133.84688 37.784374 132.81563 37.784374Q131.1125 37.784374 130.19063 36.95625Q129.26875 36.1125 129.26875 34.815624Q129.26875 34.05 129.6125 33.425Q129.97188 32.8 130.53438 32.425Q131.09688 32.034374 131.8 31.83125Q132.31563 31.70625 133.3625 31.565624Q135.4875 31.315624 136.4875 30.971874Q136.50313 30.6125 136.50313 30.503124Q136.50313 29.440624 136.00313 28.9875Q135.33125 28.39375 134.00313 28.39375Q132.75313 28.39375 132.15938 28.83125Q131.58125 29.26875 131.3 30.378124L129.58125 30.14375Q129.81563 29.034374 130.34688 28.3625Q130.87813 27.675 131.89375 27.315624Q132.90938 26.940624 134.25313 26.940624Q135.58125 26.940624 136.40938 27.253124Q137.2375 27.565624 137.62813 28.05Q138.01875 28.51875 138.175 29.2375Q138.26875 29.690624 138.26875 30.8625L138.26875 33.20625Q138.26875 35.659374 138.37813 36.315624Q138.4875 36.95625 138.83125 37.55L136.9875 37.55Q136.72188 37.003124 136.64375 36.26875ZM136.4875 32.346874Q135.53438 32.7375 133.6125 33.003124Q132.53438 33.159374 132.08125 33.3625Q131.64375 33.55 131.39375 33.925Q131.14375 34.3 131.14375 34.76875Q131.14375 35.471874 131.675 35.940624Q132.20625 36.409374 133.2375 36.409374Q134.25313 36.409374 135.03438 35.971874Q135.83125 35.51875 136.20625 34.753124Q136.4875 34.14375 136.4875 32.9875L136.4875 32.346874ZM139.69063 37.55L143.4875 32.159374L139.9875 27.175L142.175 27.175L143.76875 29.6125Q144.22188 30.3 144.4875 30.76875Q144.925 30.128124 145.28438 29.628124L147.03438 27.175L149.12813 27.175L145.55 32.065624L149.40938 37.55L147.25313 37.55L145.1125 34.33125L144.55 33.45625L141.83125 37.55L139.69063 37.55ZM156.19063 37.55L156.19063 23.2375L165.84688 23.2375L165.84688 24.925L158.08125 24.925L158.08125 29.3625L164.8 29.3625L164.8 31.05L158.08125 31.05L158.08125 37.55L156.19063 37.55ZM167.87813 25.253124L167.87813 23.2375L169.64375 23.2375L169.64375 25.253124L167.87813 25.253124ZM167.87813 37.55L167.87813 27.175L169.64375 27.175L169.64375 37.55L167.87813 37.55ZM175.70625 35.971874L175.95625 37.534374Q175.22188 37.690624 174.62813 37.690624Q173.675 37.690624 173.14375 37.39375Q172.62813 37.08125 172.40938 36.596874Q172.19063 36.096874 172.19063 34.51875L172.19063 28.55L170.90938 28.55L170.90938 27.175L172.19063 27.175L172.19063 24.6125L173.94063 23.55L173.94063 27.175L175.70625 27.175L175.70625 28.55L173.94063 28.55L173.94063 34.6125Q173.94063 35.3625 174.03438 35.58125Q174.12813 35.784374 174.33125 35.925Q174.55 36.05 174.94063 36.05Q175.22188 36.05 175.70625 35.971874ZM177.8625 37.55L177.8625 27.175L179.45625 27.175L179.45625 28.659374Q180.59688 26.940624 182.75313 26.940624Q183.69063 26.940624 184.47188 27.284374Q185.26875 27.6125 185.65938 28.159374Q186.05 28.70625 186.20625 29.45625Q186.3 29.95625 186.3 31.175L186.3 37.55L184.53438 37.55L184.53438 31.2375Q184.53438 30.159374 184.33125 29.628124Q184.12813 29.096874 183.59688 28.784374Q183.08125 28.471874 182.37813 28.471874Q181.25313 28.471874 180.44063 29.190624Q179.62813 29.89375 179.62813 31.878124L179.62813 37.55L177.8625 37.55ZM194.97188 34.20625L196.78438 34.440624Q196.3625 36.01875 195.19063 36.909374Q194.03438 37.784374 192.22188 37.784374Q189.95625 37.784374 188.6125 36.39375Q187.28438 34.9875 187.28438 32.45625Q187.28438 29.83125 188.62813 28.39375Q189.97188 26.940624 192.12813 26.940624Q194.20625 26.940624 195.51875 28.3625Q196.84688 29.76875 196.84688 32.346874Q196.84688 32.503124 196.83125 32.815624L189.09688 32.815624Q189.19063 34.51875 190.06563 35.425Q190.94063 36.33125 192.2375 36.33125Q193.20625 36.33125 193.87813 35.83125Q194.56563 35.315624 194.97188 34.20625ZM189.19063 31.3625L194.9875 31.3625Q194.87813 30.065624 194.33125 29.409374Q193.4875 28.39375 192.14375 28.39375Q190.94063 28.39375 190.1125 29.20625Q189.28438 30.003124 189.19063 31.3625ZM198.15938 34.45625L199.90938 34.175Q200.05 35.221874 200.72188 35.784374Q201.39375 36.33125 202.59688 36.33125Q203.8 36.33125 204.37813 35.846874Q204.97188 35.346874 204.97188 34.690624Q204.97188 34.096874 204.45625 33.753124Q204.09688 33.51875 202.65938 33.159374Q200.72188 32.659374 199.97188 32.315624Q199.2375 31.95625 198.84688 31.33125Q198.45625 30.690624 198.45625 29.925Q198.45625 29.2375 198.76875 28.64375Q199.09688 28.05 199.64375 27.659374Q200.05 27.3625 200.75313 27.159374Q201.47188 26.940624 202.28438 26.940624Q203.50313 26.940624 204.425 27.3Q205.34688 27.64375 205.78438 28.253124Q206.22188 28.846874 206.39375 29.846874L204.675 30.08125Q204.55 29.284374 203.9875 28.846874Q203.425 28.39375 202.40938 28.39375Q201.19063 28.39375 200.675 28.8Q200.15938 29.190624 200.15938 29.721874Q200.15938 30.065624 200.37813 30.346874Q200.58125 30.628124 201.05 30.815624Q201.31563 30.909374 202.59688 31.253124Q204.47188 31.753124 205.20625 32.08125Q205.94063 32.39375 206.3625 33.003124Q206.78438 33.596874 206.78438 34.503124Q206.78438 35.378124 206.26875 36.159374Q205.75313 36.940624 204.78438 37.3625Q203.81563 37.784374 202.59688 37.784374Q200.58125 37.784374 199.51875 36.940624Q198.45625 36.096874 198.15938 34.45625ZM208.15938 34.45625L209.90938 34.175Q210.05 35.221874 210.72188 35.784374Q211.39375 36.33125 212.59688 36.33125Q213.8 36.33125 214.37813 35.846874Q214.97188 35.346874 214.97188 34.690624Q214.97188 34.096874 214.45625 33.753124Q214.09688 33.51875 212.65938 33.159374Q210.72188 32.659374 209.97188 32.315624Q209.2375 31.95625 208.84688 31.33125Q208.45625 30.690624 208.45625 29.925Q208.45625 29.2375 208.76875 28.64375Q209.09688 28.05 209.64375 27.659374Q210.05 27.3625 210.75313 27.159374Q211.47188 26.940624 212.28438 26.940624Q213.50313 26.940624 214.425 27.3Q215.34688 27.64375 215.78438 28.253124Q216.22188 28.846874 216.39375 29.846874L214.675 30.08125Q214.55 29.284374 213.9875 28.846874Q213.425 28.39375 212.40938 28.39375Q211.19063 28.39375 210.675 28.8Q210.15938 29.190624 210.15938 29.721874Q210.15938 30.065624 210.37813 30.346874Q210.58125 30.628124 211.05 30.815624Q211.31563 30.909374 212.59688 31.253124Q214.47188 31.753124 215.20625 32.08125Q215.94063 32.39375 216.3625 33.003124Q216.78438 33.596874 216.78438 34.503124Q216.78438 35.378124 216.26875 36.159374Q215.75313 36.940624 214.78438 37.3625Q213.81563 37.784374 212.59688 37.784374Q210.58125 37.784374 209.51875 36.940624Q208.45625 36.096874 208.15938 34.45625ZM226.4875 37.55L224.8625 37.55L224.8625 23.2375L226.6125 23.2375L226.6125 28.346874Q227.7375 26.940624 229.45625 26.940624Q230.40938 26.940624 231.26875 27.33125Q232.12813 27.721874 232.675 28.425Q233.22188 29.1125 233.53438 30.096874Q233.84688 31.08125 233.84688 32.20625Q233.84688 34.878124 232.53438 36.33125Q231.22188 37.784374 229.37813 37.784374Q227.53438 37.784374 226.4875 36.253124L226.4875 37.55ZM226.47188 32.284374Q226.47188 34.14375 226.97188 34.9875Q227.81563 36.33125 229.22188 36.33125Q230.37813 36.33125 231.20625 35.33125Q232.05 34.33125 232.05 32.346874Q232.05 30.315624 231.2375 29.3625Q230.44063 28.39375 229.3 28.39375Q228.14375 28.39375 227.3 29.39375Q226.47188 30.39375 226.47188 32.284374ZM235.78438 41.55L235.59688 39.89375Q236.175 40.05 236.59688 40.05Q237.19063 40.05 237.53438 39.846874Q237.89375 39.659374 238.1125 39.315624Q238.28438 39.05 238.65938 38.003124Q238.70625 37.846874 238.81563 37.565624L234.87813 27.175L236.76875 27.175L238.925 33.190624Q239.34688 34.33125 239.675 35.58125Q239.9875 34.378124 240.39375 33.221874L242.6125 27.175L244.37813 27.175L240.425 37.721874Q239.8 39.440624 239.44063 40.08125Q238.97188 40.95625 238.3625 41.346874Q237.76875 41.753124 236.925 41.753124Q236.40938 41.753124 235.78438 41.55ZM258.8 31.940624L258.8 30.253124L264.8625 30.2375L264.8625 35.55Q263.45624 36.675 261.97186 37.2375Q260.4875 37.8 258.925 37.8Q256.8156 37.8 255.09688 36.89375Q253.37813 35.9875 252.4875 34.284374Q251.6125 32.565624 251.6125 30.45625Q251.6125 28.3625 252.4875 26.565624Q253.3625 24.753124 255.00313 23.878124Q256.64374 22.9875 258.78436 22.9875Q260.33124 22.9875 261.58124 23.4875Q262.84686 23.9875 263.55 24.89375Q264.26874 25.784374 264.64374 27.2375L262.9406 27.70625Q262.6125 26.6125 262.1281 25.9875Q261.65936 25.3625 260.76874 24.9875Q259.8781 24.6125 258.8 24.6125Q257.4875 24.6125 256.53436 25.003124Q255.59688 25.39375 255.01875 26.05Q254.44063 26.690624 254.1125 27.45625Q253.56563 28.784374 253.56563 30.346874Q253.56563 32.253124 254.22188 33.55Q254.89375 34.83125 256.14374 35.45625Q257.40936 36.08125 258.8156 36.08125Q260.05 36.08125 261.22186 35.6125Q262.39374 35.14375 263.0031 34.596874L263.0031 31.940624L258.8 31.940624ZM274.97186 34.20625L276.78436 34.440624Q276.3625 36.01875 275.1906 36.909374Q274.03436 37.784374 272.22186 37.784374Q269.95624 37.784374 268.6125 36.39375Q267.28436 34.9875 267.28436 32.45625Q267.28436 29.83125 268.6281 28.39375Q269.97186 26.940624 272.1281 26.940624Q274.20624 26.940624 275.51874 28.3625Q276.84686 29.76875 276.84686 32.346874Q276.84686 32.503124 276.83124 32.815624L269.09686 32.815624Q269.1906 34.51875 270.0656 35.425Q270.9406 36.33125 272.2375 36.33125Q273.20624 36.33125 273.8781 35.83125Q274.5656 35.315624 274.97186 34.20625ZM269.1906 31.3625L274.9875 31.3625Q274.8781 30.065624 274.33124 29.409374Q273.4875 28.39375 272.14374 28.39375Q270.9406 28.39375 270.1125 29.20625Q269.28436 30.003124 269.1906 31.3625ZM278.8625 37.55L278.8625 27.175L280.45624 27.175L280.45624 28.659374Q281.59686 26.940624 283.7531 26.940624Q284.6906 26.940624 285.47186 27.284374Q286.26874 27.6125 286.65936 28.159374Q287.05 28.70625 287.20624 29.45625Q287.3 29.95625 287.3 31.175L287.3 37.55L285.53436 37.55L285.53436 31.2375Q285.53436 30.159374 285.33124 29.628124Q285.1281 29.096874 284.59686 28.784374Q284.08124 28.471874 283.3781 28.471874Q282.2531 28.471874 281.4406 29.190624Q280.6281 29.89375 280.6281 31.878124L280.6281 37.55L278.8625 37.55ZM295.97186 34.20625L297.78436 34.440624Q297.3625 36.01875 296.1906 36.909374Q295.03436 37.784374 293.22186 37.784374Q290.95624 37.784374 289.6125 36.39375Q288.28436 34.9875 288.28436 32.45625Q288.28436 29.83125 289.6281 28.39375Q290.97186 26.940624 293.1281 26.940624Q295.20624 26.940624 296.51874 28.3625Q297.84686 29.76875 297.84686 32.346874Q297.84686 32.503124 297.83124 32.815624L290.09686 32.815624Q290.1906 34.51875 291.0656 35.425Q291.9406 36.33125 293.2375 36.33125Q294.20624 36.33125 294.8781 35.83125Q295.5656 35.315624 295.97186 34.20625ZM290.1906 31.3625L295.9875 31.3625Q295.8781 30.065624 295.33124 29.409374Q294.4875 28.39375 293.14374 28.39375Q291.9406 28.39375 291.1125 29.20625Q290.28436 30.003124 290.1906 31.3625ZM299.84686 37.55L299.84686 27.175L301.425 27.175L301.425 28.753124Q302.03436 27.64375 302.55 27.3Q303.0656 26.940624 303.675 26.940624Q304.5656 26.940624 305.4875 27.503124L304.8781 29.14375Q304.2375 28.753124 303.59686 28.753124Q303.01874 28.753124 302.55 29.1125Q302.09686 29.45625 301.89374 30.065624Q301.6125 31.003124 301.6125 32.1125L301.6125 37.55L299.84686 37.55ZM313.64374 36.26875Q312.65936 37.096874 311.7531 37.440624Q310.84686 37.784374 309.8156 37.784374Q308.1125 37.784374 307.1906 36.95625Q306.26874 36.1125 306.26874 34.815624Q306.26874 34.05 306.6125 33.425Q306.97186 32.8 307.53436 32.425Q308.09686 32.034374 308.8 31.83125Q309.3156 31.70625 310.3625 31.565624Q312.4875 31.315624 313.4875 30.971874Q313.5031 30.6125 313.5031 30.503124Q313.5031 29.440624 313.0031 28.9875Q312.33124 28.39375 311.0031 28.39375Q309.7531 28.39375 309.15936 28.83125Q308.58124 29.26875 308.3 30.378124L306.58124 30.14375Q306.8156 29.034374 307.34686 28.3625Q307.8781 27.675 308.89374 27.315624Q309.90936 26.940624 311.2531 26.940624Q312.58124 26.940624 313.40936 27.253124Q314.2375 27.565624 314.6281 28.05Q315.01874 28.51875 315.175 29.2375Q315.26874 29.690624 315.26874 30.8625L315.26874 33.20625Q315.26874 35.659374 315.3781 36.315624Q315.4875 36.95625 315.83124 37.55L313.9875 37.55Q313.72186 37.003124 313.64374 36.26875ZM313.4875 32.346874Q312.53436 32.7375 310.6125 33.003124Q309.53436 33.159374 309.08124 33.3625Q308.64374 33.55 308.39374 33.925Q308.14374 34.3 308.14374 34.76875Q308.14374 35.471874 308.675 35.940624Q309.20624 36.409374 310.2375 36.409374Q311.2531 36.409374 312.03436 35.971874Q312.83124 35.51875 313.20624 34.753124Q313.4875 34.14375 313.4875 32.9875L313.4875 32.346874ZM321.70624 35.971874L321.95624 37.534374Q321.22186 37.690624 320.6281 37.690624Q319.675 37.690624 319.14374 37.39375Q318.6281 37.08125 318.40936 36.596874Q318.1906 36.096874 318.1906 34.51875L318.1906 28.55L316.90936 28.55L316.90936 27.175L318.1906 27.175L318.1906 24.6125L319.9406 23.55L319.9406 27.175L321.70624 27.175L321.70624 28.55L319.9406 28.55L319.9406 34.6125Q319.9406 35.3625 320.03436 35.58125Q320.1281 35.784374 320.33124 35.925Q320.55 36.05 320.9406 36.05Q321.22186 36.05 321.70624 35.971874ZM323.8781 25.253124L323.8781 23.2375L325.64374 23.2375L325.64374 25.253124L323.8781 25.253124ZM323.8781 37.55L323.8781 27.175L325.64374 27.175L325.64374 37.55L323.8781 37.55ZM327.22186 32.3625Q327.22186 29.4875 328.8156 28.096874Q330.15936 26.940624 332.08124 26.940624Q334.22186 26.940624 335.5656 28.346874Q336.925 29.753124 336.925 32.221874Q336.925 34.221874 336.33124 35.378124Q335.7375 36.51875 334.58124 37.159374Q333.4406 37.784374 332.08124 37.784374Q329.89374 37.784374 328.55 36.39375Q327.22186 34.9875 327.22186 32.3625ZM329.01874 32.3625Q329.01874 34.3625 329.8781 35.346874Q330.7531 36.33125 332.08124 36.33125Q333.39374 36.33125 334.2531 35.346874Q335.1281 34.346874 335.1281 32.3Q335.1281 30.378124 334.2531 29.39375Q333.3781 28.39375 332.08124 28.39375Q330.7531 28.39375 329.8781 29.39375Q329.01874 30.378124 329.01874 32.3625ZM338.8625 37.55L338.8625 27.175L340.45624 27.175L340.45624 28.659374Q341.59686 26.940624 343.7531 26.940624Q344.6906 26.940624 345.47186 27.284374Q346.26874 27.6125 346.65936 28.159374Q347.05 28.70625 347.20624 29.45625Q347.3 29.95625 347.3 31.175L347.3 37.55L345.53436 37.55L345.53436 31.2375Q345.53436 30.159374 345.33124 29.628124Q345.1281 29.096874 344.59686 28.784374Q344.08124 28.471874 343.3781 28.471874Q342.2531 28.471874 341.4406 29.190624Q340.6281 29.89375 340.6281 31.878124L340.6281 37.55L338.8625 37.55Z" fill-rule="nonzero"/></svg>